<svg width="23" height="24" viewBox="0 0 23 24" fill="none" xmlns="http://www.w3.org/2000/svg">
<g clip-path="url(#clip0_121_231)">
<path d="M11.5 21.844L2.3115 11.844C1.50394 11.002 0.970945 9.91605 0.788094 8.7402C0.605243 7.56434 0.781823 6.35825 1.29279 5.293V5.293C1.67809 4.48912 2.24093 3.79227 2.93494 3.25988C3.62894 2.72749 4.43424 2.37479 5.28449 2.23085C6.13474 2.0869 7.0056 2.15583 7.82531 2.43194C8.64503 2.70806 9.39014 3.18347 9.99925 3.819L11.5 5.384L13.0007 3.819C13.6099 3.18347 14.355 2.70806 15.1747 2.43194C15.9944 2.15583 16.8653 2.0869 17.7155 2.23085C18.5658 2.37479 19.3711 2.72749 20.0651 3.25988C20.7591 3.79227 21.3219 4.48912 21.7072 5.293C22.2175 6.35784 22.3938 7.56321 22.2111 8.7384C22.0284 9.91359 21.4961 10.999 20.6895 11.841L11.5 21.844Z" stroke="white" stroke-width="1.5" stroke-linecap="round" stroke-linejoin="round"/>
</g>
<defs>
<clipPath id="clip0_121_231">
<rect width="23" height="24" fill="white"/>
</clipPath>
</defs>
</svg>
