<svg width="23" height="22" viewBox="0 0 23 22" fill="none" xmlns="http://www.w3.org/2000/svg">
<path d="M11.5 20.844L2.31148 10.844C1.50393 10.002 0.97093 8.91609 0.788079 7.74023C0.605228 6.56437 0.781808 5.35828 1.29277 4.29303V4.29303C1.67808 3.48915 2.24092 2.7923 2.93492 2.25991C3.62893 1.72752 4.43423 1.37483 5.28448 1.23088C6.13473 1.08693 7.00558 1.15586 7.8253 1.43198C8.64501 1.70809 9.39012 2.1835 9.99923 2.81903L11.5 4.38403L13.0007 2.81903C13.6098 2.1835 14.355 1.70809 15.1747 1.43198C15.9944 1.15586 16.8652 1.08693 17.7155 1.23088C18.5657 1.37483 19.371 1.72752 20.065 2.25991C20.759 2.7923 21.3219 3.48915 21.7072 4.29303C22.2175 5.35787 22.3938 6.56324 22.2111 7.73843C22.0284 8.91362 21.4961 9.99906 20.6894 10.841L11.5 20.844Z" stroke="#F44336" stroke-width="1.5" stroke-linecap="round" stroke-linejoin="round"/>
</svg>
