<svg width="13" height="21" viewBox="0 0 13 21" fill="none" xmlns="http://www.w3.org/2000/svg">
<path d="M12.1987 10.1084C12.1987 9.72656 12.0527 9.40088 11.7495 9.10889L2.98975 0.540039C2.75391 0.292969 2.43945 0.169434 2.08008 0.169434C1.3501 0.169434 0.777344 0.730957 0.777344 1.47217C0.777344 1.83154 0.92334 2.15723 1.17041 2.4043L9.06543 10.1084L1.17041 17.8125C0.92334 18.0708 0.777344 18.3965 0.777344 18.7559C0.777344 19.4858 1.3501 20.0474 2.08008 20.0474C2.43945 20.0474 2.75391 19.9238 2.98975 19.6768L11.7495 11.1079C12.0527 10.8159 12.1875 10.4902 12.1987 10.1084Z" fill="white"/>
</svg>
