<svg width="104" height="91" viewBox="0 0 104 91" fill="none" xmlns="http://www.w3.org/2000/svg">
<rect width="104" height="91" rx="8" fill="#E59F26" fill-opacity="0.15"/>
<path d="M18.8945 75.7332V36.4024L48.3868 16.0221C49.4534 15.2848 50.7024 14.8947 51.9998 14.8947C53.2972 14.8947 54.5462 15.2848 55.6127 16.0221L85.1051 36.4024V75.7332H18.8945Z" fill="white"/>
<path d="M52 15.7895C53.1131 15.7895 54.1867 16.1241 55.1029 16.7576L84.2105 36.8695V74.8385H19.7895V36.8695L48.8971 16.7576C49.8133 16.1241 50.8869 15.7895 52 15.7895ZM52 14C50.5595 14 49.1189 14.4277 47.8806 15.2848L18 35.9318V76.628H86V35.9318L56.1194 15.2848C54.8811 14.4295 53.4405 14 52 14Z" fill="#E59F26"/>
<path d="M60.947 53.3649H43.0522L19.7891 36.8695L48.8966 16.7576C49.8129 16.1241 50.8865 15.7895 51.9996 15.7895C53.1126 15.7895 54.1863 16.1241 55.1025 16.7576L84.2101 36.8695L60.947 53.3649Z" fill="#E59F26" fill-opacity="0.15"/>
<path d="M19.7891 36.8695V74.8386H84.2101V36.8695L60.5658 52.4505L43.6606 52.6795L19.7891 36.8695Z" fill="#E59F26"/>
<path d="M60.3761 51.5754H43.6231L21.3566 35.7869L19.7891 36.8695L43.0522 53.3649H60.947L84.2101 36.8695L82.6425 35.7869L60.3761 51.5754Z" fill="#E59F26"/>
<path d="M65.4214 31.8912H38.5793C38.0854 31.8912 37.6846 31.4903 37.6846 30.9964C37.6846 30.5025 38.0854 30.1017 38.5793 30.1017H65.4214C65.9153 30.1017 66.3161 30.5025 66.3161 30.9964C66.3161 31.4903 65.9153 31.8912 65.4214 31.8912Z" fill="#E59F26"/>
<path d="M58.2635 37.2596H38.5793C38.0854 37.2596 37.6846 36.8587 37.6846 36.3648C37.6846 35.8709 38.0854 35.4701 38.5793 35.4701H58.2635C58.7574 35.4701 59.1583 35.8709 59.1583 36.3648C59.1583 36.8587 58.7574 37.2596 58.2635 37.2596Z" fill="#E59F26"/>
<path d="M65.4214 42.628H38.5793C38.0854 42.628 37.6846 42.2271 37.6846 41.7332C37.6846 41.2393 38.0854 40.8385 38.5793 40.8385H65.4214C65.9153 40.8385 66.3161 41.2393 66.3161 41.7332C66.3161 42.2271 65.9153 42.628 65.4214 42.628Z" fill="#E59F26"/>
</svg>
