<svg width="16" height="16" viewBox="0 0 16 16" fill="none" xmlns="http://www.w3.org/2000/svg">
<path d="M14.3691 2.66667C14.3085 2.66043 14.2474 2.66043 14.1868 2.66667H1.74239C1.66263 2.6679 1.5834 2.67986 1.50684 2.70222L7.92906 9.09778L14.3691 2.66667Z" fill="#E59F26"/>
<path d="M15.0268 3.28442L8.55569 9.72887C8.38914 9.89442 8.16385 9.98735 7.92902 9.98735C7.69419 9.98735 7.4689 9.89442 7.30235 9.72887L0.889021 3.33331C0.869305 3.40578 0.858852 3.48044 0.85791 3.55554V12.4444C0.85791 12.6802 0.951561 12.9063 1.11826 13.073C1.28496 13.2397 1.51105 13.3333 1.7468 13.3333H14.1912C14.427 13.3333 14.6531 13.2397 14.8198 13.073C14.9865 12.9063 15.0801 12.6802 15.0801 12.4444V3.55554C15.0766 3.46294 15.0586 3.37146 15.0268 3.28442V3.28442ZM2.35569 12.4444H1.73791V11.8089L4.96902 8.60442L5.59569 9.23109L2.35569 12.4444ZM14.1824 12.4444H13.5601L10.3201 9.23109L10.9468 8.60442L14.1779 11.8089L14.1824 12.4444Z" fill="#E59F26"/>
</svg>
