<svg width="24" height="24" viewBox="0 0 24 24" fill="none" xmlns="http://www.w3.org/2000/svg">
<path d="M20.678 19.0312H3.24048C3.054 19.0312 2.87516 18.9572 2.74329 18.8253C2.61143 18.6934 2.53735 18.5146 2.53735 18.3281V6.51562C2.53735 6.32914 2.61143 6.1503 2.74329 6.01844C2.87516 5.88658 3.054 5.8125 3.24048 5.8125H20.678C20.8645 5.8125 21.0433 5.88658 21.1752 6.01844C21.307 6.1503 21.3811 6.32914 21.3811 6.51562V18.3281C21.3811 18.5146 21.307 18.6934 21.1752 18.8253C21.0433 18.9572 20.8645 19.0312 20.678 19.0312ZM3.9436 17.625H19.9749V7.21875H3.9436V17.625Z" fill="#E59F26"/>
<path d="M11.9593 15.75C11.7754 15.75 11.5989 15.678 11.4675 15.5494L2.7488 7.01814C2.61553 6.88761 2.53957 6.70948 2.53764 6.52294C2.5357 6.3364 2.60795 6.15673 2.73849 6.02346C2.86902 5.89019 3.04715 5.81423 3.23369 5.81229C3.42023 5.81036 3.5999 5.88261 3.73317 6.01314L11.9593 14.0625L20.1863 6.01314C20.2523 5.94851 20.3304 5.8975 20.4161 5.86304C20.5018 5.82858 20.5934 5.81134 20.6858 5.81229C20.7781 5.81325 20.8694 5.83239 20.9544 5.86862C21.0394 5.90486 21.1164 5.95747 21.181 6.02346C21.2456 6.08945 21.2966 6.16752 21.3311 6.25322C21.3655 6.33892 21.3828 6.43057 21.3818 6.52294C21.3809 6.6153 21.3617 6.70657 21.3255 6.79154C21.2893 6.87651 21.2367 6.95351 21.1707 7.01814L12.4519 15.5494C12.3203 15.6782 12.1434 15.7502 11.9593 15.75Z" fill="#E59F26"/>
<path d="M3.24054 19.0313C3.09867 19.0307 2.96027 18.9873 2.84354 18.9066C2.7268 18.826 2.6372 18.7119 2.58649 18.5794C2.53578 18.4469 2.52634 18.3022 2.55941 18.1642C2.59248 18.0263 2.66652 17.9015 2.77179 17.8064L9.04695 12.1364C9.11503 12.072 9.19529 12.0219 9.28301 11.9889C9.37074 11.956 9.46417 11.9409 9.5578 11.9446C9.65143 11.9483 9.74339 11.9707 9.82825 12.0104C9.91312 12.0502 9.98919 12.1064 10.052 12.176C10.1148 12.2455 10.163 12.3269 10.1939 12.4154C10.2248 12.5039 10.2377 12.5976 10.2319 12.6911C10.226 12.7847 10.2015 12.8761 10.1598 12.96C10.1182 13.0439 10.0601 13.1187 9.98914 13.1798L3.71164 18.8517C3.5822 18.9677 3.41437 19.0317 3.24054 19.0313Z" fill="#E59F26"/>
<path d="M20.6776 19.0313C20.5043 19.031 20.3372 18.9663 20.2089 18.8499L13.9314 13.178C13.7979 13.0518 13.7192 12.8784 13.712 12.6949C13.7047 12.5113 13.7696 12.3323 13.8927 12.196C14.0158 12.0596 14.1873 11.9769 14.3706 11.9654C14.5539 11.9539 14.7344 12.0147 14.8736 12.1345L21.1511 17.8064C21.2566 17.9018 21.3308 18.027 21.3637 18.1654C21.3967 18.3038 21.3868 18.4489 21.3355 18.5816C21.2842 18.7144 21.1939 18.8284 21.0764 18.9087C20.959 18.9889 20.8199 19.0317 20.6776 19.0313Z" fill="#E59F26"/>
</svg>
