<svg width="17" height="21" viewBox="0 0 17 21" fill="none" xmlns="http://www.w3.org/2000/svg">
<path d="M11.5322 0.0015882C11.2809 -0.00703187 11.026 0.0193441 10.774 0.0830002C10.102 0.25275 9.54854 0.66762 9.21253 1.23345L8.50107 2.45942C8.34295 2.72348 8.4417 3.08213 8.71841 3.23302L12.1379 5.11913C12.2367 5.17571 12.3355 5.19428 12.4344 5.19428C12.4937 5.19428 12.533 5.19435 12.5923 5.17549C12.7504 5.13777 12.8691 5.04339 12.9482 4.91136L13.6793 3.68539C14.0153 3.11956 14.1143 2.45972 13.9364 1.81844C13.7585 1.17716 13.3238 0.64898 12.7308 0.328341C12.3603 0.127943 11.9511 0.0159551 11.5322 0.0015882ZM7.72977 4.23759C7.5383 4.25159 7.35455 4.35032 7.25572 4.51535L1.28686 14.3986C0.614853 15.4926 0.239474 16.7186 0.160414 17.9634L0.00213979 20.3966C-0.0176252 20.6041 0.100965 20.8113 0.298614 20.9245C0.397439 20.9811 0.496264 21 0.595088 21C0.713678 21 0.832113 20.9623 0.930938 20.9057L3.06571 19.5666C4.15278 18.8688 5.08173 17.9445 5.73398 16.8506L11.7229 6.96729C11.881 6.70324 11.7819 6.34495 11.5052 6.19406C11.2285 6.04317 10.853 6.1374 10.6949 6.40146L4.70635 16.2847C4.13317 17.2089 3.34234 18.02 2.39362 18.6236L1.24749 19.3401L1.32624 18.039C1.38553 16.9639 1.72161 15.9075 2.2948 14.9645L8.28373 5.08118C8.44185 4.81713 8.3431 4.45884 8.0664 4.30795C7.96263 4.25137 7.84466 4.22919 7.72977 4.23759ZM5.53633 19.8683C5.20032 19.8683 4.94338 20.1135 4.94338 20.4342C4.94338 20.7548 5.20032 21 5.53633 21H13.4423C13.7783 21 14.0353 20.7548 14.0353 20.4342C14.0353 20.1135 13.7783 19.8683 13.4423 19.8683H5.53633ZM16.4071 19.8683C16.2498 19.8683 16.099 19.9279 15.9878 20.0341C15.8766 20.1402 15.8141 20.2841 15.8141 20.4342C15.8141 20.5842 15.8766 20.7282 15.9878 20.8343C16.099 20.9404 16.2498 21 16.4071 21C16.5643 21 16.7151 20.9404 16.8263 20.8343C16.9375 20.7282 17 20.5842 17 20.4342C17 20.2841 16.9375 20.1402 16.8263 20.0341C16.7151 19.9279 16.5643 19.8683 16.4071 19.8683Z" fill="white"/>
</svg>
