<svg width="24" height="24" viewBox="0 0 24 24" fill="none" xmlns="http://www.w3.org/2000/svg">
<g clip-path="url(#clip0_230_1552)">
<path d="M15.254 9C15.8507 9 16.423 9.23705 16.845 9.65901C17.2669 10.081 17.504 10.6533 17.504 11.25V17.499C17.504 18.958 16.9244 20.3572 15.8928 21.3888C14.8612 22.4204 13.462 23 12.003 23C10.544 23 9.14484 22.4204 8.11321 21.3888C7.08157 20.3572 6.502 18.958 6.502 17.499V11.25C6.502 10.6533 6.73905 10.081 7.16101 9.65901C7.58297 9.23705 8.15526 9 8.752 9H15.254ZM15.254 10.5H8.752C8.55309 10.5 8.36232 10.579 8.22167 10.7197C8.08102 10.8603 8.002 11.0511 8.002 11.25V17.499C8.002 18.5601 8.42353 19.5778 9.17387 20.3281C9.9242 21.0785 10.9419 21.5 12.003 21.5C13.0641 21.5 14.0818 21.0785 14.8321 20.3281C15.5825 19.5778 16.004 18.5601 16.004 17.499V11.25C16.004 11.0511 15.925 10.8603 15.7843 10.7197C15.6437 10.579 15.4529 10.5 15.254 10.5ZM2.25 9H6.406C6.00452 9.41801 5.7224 9.93598 5.589 10.5H2.25C2.05109 10.5 1.86032 10.579 1.71967 10.7197C1.57902 10.8603 1.5 11.0511 1.5 11.25V16.499C1.49987 17.0008 1.62554 17.4945 1.86553 17.9352C2.10551 18.3758 2.45215 18.7492 2.87374 19.0213C3.29532 19.2934 3.7784 19.4554 4.27877 19.4926C4.77915 19.5297 5.28086 19.4408 5.738 19.234C5.871 19.724 6.062 20.19 6.302 20.626C5.61687 20.9251 4.86802 21.0489 4.12307 20.9861C3.37812 20.9234 2.66054 20.676 2.03513 20.2665C1.40971 19.8569 0.896163 19.298 0.540853 18.6402C0.185543 17.9825 -0.000336294 17.2466 4.56743e-07 16.499V11.25C4.56743e-07 10.6533 0.237053 10.081 0.65901 9.65901C1.08097 9.23705 1.65326 9 2.25 9ZM21.75 9C22.3467 9 22.919 9.23705 23.341 9.65901C23.7629 10.081 24 10.6533 24 11.25V16.5C24.0003 17.2472 23.8146 17.9826 23.4595 18.6401C23.1045 19.2975 22.5914 19.8562 21.9664 20.2657C21.3415 20.6752 20.6244 20.9227 19.8799 20.9857C19.1354 21.0488 18.3869 20.9255 17.702 20.627L17.758 20.525C17.972 20.119 18.145 19.688 18.269 19.236C18.7259 19.4416 19.227 19.5295 19.7266 19.4916C20.2262 19.4538 20.7083 19.2914 21.129 19.0194C21.5498 18.7473 21.8956 18.3742 22.1351 17.9341C22.3746 17.4941 22.5 17.001 22.5 16.5V11.25C22.5 11.0513 22.4211 10.8606 22.2807 10.72C22.1402 10.5794 21.9497 10.5003 21.751 10.5H18.418C18.2844 9.93585 18.0019 9.41787 17.6 9H21.751H21.75ZM12 1C12.4596 1 12.9148 1.09053 13.3394 1.26642C13.764 1.44231 14.1499 1.70012 14.4749 2.02513C14.7999 2.35013 15.0577 2.73597 15.2336 3.16061C15.4095 3.58525 15.5 4.04037 15.5 4.5C15.5 4.95963 15.4095 5.41475 15.2336 5.83939C15.0577 6.26403 14.7999 6.64987 14.4749 6.97487C14.1499 7.29988 13.764 7.55769 13.3394 7.73358C12.9148 7.90947 12.4596 8 12 8C11.0717 8 10.1815 7.63125 9.52513 6.97487C8.86875 6.3185 8.5 5.42826 8.5 4.5C8.5 3.57174 8.86875 2.6815 9.52513 2.02513C10.1815 1.36875 11.0717 1 12 1ZM20.003 2C20.397 2 20.7871 2.0776 21.1511 2.22836C21.515 2.37913 21.8457 2.6001 22.1243 2.87868C22.4029 3.15726 22.6239 3.48797 22.7746 3.85195C22.9254 4.21593 23.003 4.60603 23.003 5C23.003 5.39397 22.9254 5.78407 22.7746 6.14805C22.6239 6.51203 22.4029 6.84274 22.1243 7.12132C21.8457 7.3999 21.515 7.62087 21.1511 7.77164C20.7871 7.9224 20.397 8 20.003 8C19.2074 8 18.4443 7.68393 17.8817 7.12132C17.3191 6.55871 17.003 5.79565 17.003 5C17.003 4.20435 17.3191 3.44129 17.8817 2.87868C18.4443 2.31607 19.2074 2 20.003 2ZM3.997 2C4.39097 2 4.78107 2.0776 5.14505 2.22836C5.50903 2.37913 5.83975 2.6001 6.11832 2.87868C6.3969 3.15726 6.61788 3.48797 6.76864 3.85195C6.9194 4.21593 6.997 4.60603 6.997 5C6.997 5.39397 6.9194 5.78407 6.76864 6.14805C6.61788 6.51203 6.3969 6.84274 6.11832 7.12132C5.83975 7.3999 5.50903 7.62087 5.14505 7.77164C4.78107 7.9224 4.39097 8 3.997 8C3.20135 8 2.43829 7.68393 1.87568 7.12132C1.31307 6.55871 0.997 5.79565 0.997 5C0.997 4.20435 1.31307 3.44129 1.87568 2.87868C2.43829 2.31607 3.20135 2 3.997 2ZM12 2.5C11.4696 2.5 10.9609 2.71071 10.5858 3.08579C10.2107 3.46086 10 3.96957 10 4.5C10 5.03043 10.2107 5.53914 10.5858 5.91421C10.9609 6.28929 11.4696 6.5 12 6.5C12.5304 6.5 13.0391 6.28929 13.4142 5.91421C13.7893 5.53914 14 5.03043 14 4.5C14 3.96957 13.7893 3.46086 13.4142 3.08579C13.0391 2.71071 12.5304 2.5 12 2.5ZM20.003 3.5C19.806 3.5 19.611 3.5388 19.429 3.61418C19.247 3.68956 19.0816 3.80005 18.9423 3.93934C18.8031 4.07863 18.6926 4.24399 18.6172 4.42597C18.5418 4.60796 18.503 4.80302 18.503 5C18.503 5.19698 18.5418 5.39204 18.6172 5.57403C18.6926 5.75601 18.8031 5.92137 18.9423 6.06066C19.0816 6.19995 19.247 6.31044 19.429 6.38582C19.611 6.4612 19.806 6.5 20.003 6.5C20.4008 6.5 20.7824 6.34196 21.0637 6.06066C21.345 5.77936 21.503 5.39782 21.503 5C21.503 4.60218 21.345 4.22064 21.0637 3.93934C20.7824 3.65804 20.4008 3.5 20.003 3.5ZM3.997 3.5C3.80002 3.5 3.60496 3.5388 3.42298 3.61418C3.24099 3.68956 3.07563 3.80005 2.93634 3.93934C2.79705 4.07863 2.68656 4.24399 2.61118 4.42597C2.5358 4.60796 2.497 4.80302 2.497 5C2.497 5.19698 2.5358 5.39204 2.61118 5.57403C2.68656 5.75601 2.79705 5.92137 2.93634 6.06066C3.07563 6.19995 3.24099 6.31044 3.42298 6.38582C3.60496 6.4612 3.80002 6.5 3.997 6.5C4.39483 6.5 4.77636 6.34196 5.05766 6.06066C5.33896 5.77936 5.497 5.39782 5.497 5C5.497 4.60218 5.33896 4.22064 5.05766 3.93934C4.77636 3.65804 4.39483 3.5 3.997 3.5Z" fill="#757575"/>
</g>
<defs>
<clipPath id="clip0_230_1552">
<rect width="24" height="24" fill="white"/>
</clipPath>
</defs>
</svg>
