<svg width="24" height="24" viewBox="0 0 24 24" fill="none" xmlns="http://www.w3.org/2000/svg">
<path d="M12 21.54C11.7033 21.5407 11.4095 21.4828 11.1353 21.3695C10.8611 21.2562 10.6121 21.0899 10.4025 20.88L2.67746 13.155C2.06721 12.5381 1.58583 11.8059 1.26134 11.0012C0.936861 10.1964 0.775771 9.33511 0.787459 8.46747C0.793338 7.67235 0.956028 6.8862 1.26621 6.15405C1.57639 5.42191 2.02796 4.75815 2.59507 4.2008C3.16218 3.64344 3.83367 3.20345 4.57109 2.90602C5.3085 2.60858 6.09736 2.45956 6.89246 2.46747C7.70179 2.45932 8.50452 2.61378 9.25304 2.92169C10.0016 3.2296 10.6806 3.68469 11.25 4.25997L12 5.00997L12.615 4.39497C13.6769 3.3049 15.0979 2.6366 16.6148 2.51388C18.1316 2.39115 19.6416 2.8223 20.865 3.72747C21.5613 4.26376 22.1355 4.94226 22.5491 5.71779C22.9628 6.49332 23.2065 7.34808 23.264 8.22516C23.3214 9.10223 23.1914 9.98149 22.8825 10.8044C22.5736 11.6273 22.0929 12.3749 21.4725 12.9975L13.5975 20.88C13.3878 21.0899 13.1388 21.2562 12.8646 21.3695C12.5905 21.4828 12.2966 21.5407 12 21.54ZM6.86246 3.95997C5.67035 3.95875 4.52453 4.42138 3.66746 5.24997C3.23051 5.67038 2.88302 6.17476 2.64588 6.73282C2.40874 7.29088 2.28682 7.89111 2.28746 8.49747C2.28088 9.16445 2.40677 9.82611 2.65782 10.4441C2.90887 11.062 3.28009 11.624 3.74996 12.0975L11.475 19.8225C11.5447 19.8928 11.6276 19.9486 11.719 19.9866C11.8104 20.0247 11.9085 20.0443 12.0075 20.0443C12.1065 20.0443 12.2045 20.0247 12.2959 19.9866C12.3873 19.9486 12.4702 19.8928 12.54 19.8225L20.4225 11.9325C20.8851 11.46 21.2426 10.895 21.4714 10.2745C21.7002 9.65406 21.7951 8.99222 21.75 8.33247C21.7099 7.66596 21.5263 7.01596 21.2118 6.42698C20.8972 5.838 20.4591 5.32393 19.9275 4.91997C18.9946 4.23214 17.8434 3.90691 16.6885 4.00488C15.5336 4.10285 14.4537 4.61733 13.65 5.45247L12.5325 6.59997C12.4627 6.67027 12.3798 6.72606 12.2884 6.76414C12.197 6.80222 12.099 6.82182 12 6.82182C11.9009 6.82182 11.8029 6.80222 11.7115 6.76414C11.6201 6.72606 11.5372 6.67027 11.4675 6.59997L10.1925 5.32497C9.31429 4.45443 8.12899 3.96415 6.89246 3.95997H6.86246Z" fill="#E59F26"/>
</svg>
