<svg width="23" height="24" viewBox="0 0 23 24" fill="none" xmlns="http://www.w3.org/2000/svg">
<g clip-path="url(#clip0_230_1555)">
<path d="M11.5001 21.844L2.3116 11.844C1.50405 11.002 0.971052 9.91606 0.788201 8.7402C0.60535 7.56434 0.78193 6.35825 1.2929 5.293V5.293C1.6782 4.48912 2.24104 3.79228 2.93504 3.25989C3.62905 2.7275 4.43435 2.3748 5.2846 2.23085C6.13485 2.0869 7.00571 2.15583 7.82542 2.43195C8.64514 2.70807 9.39024 3.18347 9.99935 3.819L11.5001 5.384L13.0009 3.819C13.61 3.18347 14.3551 2.70807 15.1748 2.43195C15.9945 2.15583 16.8654 2.0869 17.7156 2.23085C18.5659 2.3748 19.3712 2.7275 20.0652 3.25989C20.7592 3.79228 21.322 4.48912 21.7073 5.293C22.2176 6.35784 22.3939 7.56321 22.2112 8.7384C22.0286 9.91359 21.4962 10.999 20.6896 11.841L11.5001 21.844Z" stroke="#4A4A4A" stroke-width="1.5" stroke-linecap="round" stroke-linejoin="round"/>
</g>
<defs>
<clipPath id="clip0_230_1555">
<rect width="23" height="24" fill="white"/>
</clipPath>
</defs>
</svg>
