<svg width="25" height="24" viewBox="0 0 25 24" fill="none" xmlns="http://www.w3.org/2000/svg">
<rect x="2.44287" y="1.5" width="21" height="21" rx="6" fill="url(#paint0_radial_341_1032)"/>
<rect x="2.44287" y="1.5" width="21" height="21" rx="6" fill="url(#paint1_radial_341_1032)"/>
<rect x="2.44287" y="1.5" width="21" height="21" rx="6" fill="#E59F26"/>
<path d="M18.1929 7.875C18.1929 8.49632 17.6892 9 17.0679 9C16.4466 9 15.9429 8.49632 15.9429 7.875C15.9429 7.25368 16.4466 6.75 17.0679 6.75C17.6892 6.75 18.1929 7.25368 18.1929 7.875Z" fill="white"/>
<path fill-rule="evenodd" clip-rule="evenodd" d="M12.9429 15.75C15.0139 15.75 16.6929 14.0711 16.6929 12C16.6929 9.92893 15.0139 8.25 12.9429 8.25C10.8718 8.25 9.19287 9.92893 9.19287 12C9.19287 14.0711 10.8718 15.75 12.9429 15.75ZM12.9429 14.25C14.1855 14.25 15.1929 13.2426 15.1929 12C15.1929 10.7574 14.1855 9.75 12.9429 9.75C11.7002 9.75 10.6929 10.7574 10.6929 12C10.6929 13.2426 11.7002 14.25 12.9429 14.25Z" fill="white"/>
<path fill-rule="evenodd" clip-rule="evenodd" d="M5.44287 11.7C5.44287 9.17976 5.44287 7.91965 5.93334 6.95704C6.36477 6.11031 7.05318 5.4219 7.89991 4.99047C8.86252 4.5 10.1226 4.5 12.6429 4.5H13.2429C15.7631 4.5 17.0232 4.5 17.9858 4.99047C18.8326 5.4219 19.521 6.11031 19.9524 6.95704C20.4429 7.91965 20.4429 9.17976 20.4429 11.7V12.3C20.4429 14.8202 20.4429 16.0804 19.9524 17.043C19.521 17.8897 18.8326 18.5781 17.9858 19.0095C17.0232 19.5 15.7631 19.5 13.2429 19.5H12.6429C10.1226 19.5 8.86252 19.5 7.89991 19.0095C7.05318 18.5781 6.36477 17.8897 5.93334 17.043C5.44287 16.0804 5.44287 14.8202 5.44287 12.3V11.7ZM12.6429 6H13.2429C14.5277 6 15.4012 6.00117 16.0763 6.05633C16.7339 6.11006 17.0702 6.20745 17.3048 6.32698C17.8693 6.6146 18.3283 7.07354 18.6159 7.63803C18.7354 7.87263 18.8328 8.20893 18.8865 8.86656C18.9417 9.54169 18.9429 10.4151 18.9429 11.7V12.3C18.9429 13.5849 18.9417 14.4583 18.8865 15.1334C18.8328 15.7911 18.7354 16.1274 18.6159 16.362C18.3283 16.9265 17.8693 17.3854 17.3048 17.673C17.0702 17.7926 16.7339 17.8899 16.0763 17.9437C15.4012 17.9988 14.5277 18 13.2429 18H12.6429C11.358 18 10.4846 17.9988 9.80943 17.9437C9.1518 17.8899 8.8155 17.7926 8.5809 17.673C8.01641 17.3854 7.55747 16.9265 7.26985 16.362C7.15032 16.1274 7.05293 15.7911 6.9992 15.1334C6.94404 14.4583 6.94287 13.5849 6.94287 12.3V11.7C6.94287 10.4151 6.94404 9.54169 6.9992 8.86656C7.05293 8.20893 7.15032 7.87263 7.26985 7.63803C7.55747 7.07354 8.01641 6.6146 8.5809 6.32698C8.8155 6.20745 9.1518 6.11006 9.80943 6.05633C10.4846 6.00117 11.358 6 12.6429 6Z" fill="white"/>
<defs>
<radialGradient id="paint0_radial_341_1032" cx="0" cy="0" r="1" gradientUnits="userSpaceOnUse" gradientTransform="translate(9.94287 17.25) rotate(-55.3758) scale(19.1397)">
<stop stop-color="#B13589"/>
<stop offset="0.79309" stop-color="#C62F94"/>
<stop offset="1" stop-color="#8A3AC8"/>
</radialGradient>
<radialGradient id="paint1_radial_341_1032" cx="0" cy="0" r="1" gradientUnits="userSpaceOnUse" gradientTransform="translate(9.19287 23.25) rotate(-65.1363) scale(16.9457)">
<stop stop-color="#E0E8B7"/>
<stop offset="0.444662" stop-color="#FB8A2E"/>
<stop offset="0.71474" stop-color="#E2425C"/>
<stop offset="1" stop-color="#E2425C" stop-opacity="0"/>
</radialGradient>
</defs>
</svg>
