<svg width="22" height="24" viewBox="0 0 22 24" fill="none" xmlns="http://www.w3.org/2000/svg">
<rect y="2" width="21" height="21" rx="10.5" fill="#E59F26"/>
<path d="M8.4813 8.26911C8.4813 8.97002 7.92584 9.53822 7.24065 9.53822C6.55546 9.53822 6 8.97002 6 8.26911C6 7.5682 6.55546 7 7.24065 7C7.92584 7 8.4813 7.5682 8.4813 8.26911Z" fill="white"/>
<path d="M6.16966 10.4711H8.29043V17.5H6.16966V10.4711Z" fill="white"/>
<path d="M11.7049 10.4711H9.58409V17.5H11.7049C11.7049 17.5 11.7049 15.2872 11.7049 13.9036C11.7049 13.0732 11.9641 12.2392 12.9985 12.2392C14.1676 12.2392 14.1605 13.3259 14.1551 14.1678C14.1479 15.2683 14.1649 16.3914 14.1649 17.5H16.2857V13.7903C16.2678 11.4215 15.7034 10.3301 13.8468 10.3301C12.7443 10.3301 12.0608 10.8775 11.7049 11.3729V10.4711Z" fill="white"/>
</svg>
