<svg width="18" height="24" viewBox="0 0 18 24" fill="none" xmlns="http://www.w3.org/2000/svg">
<g clip-path="url(#clip0_545_556)">
<path d="M16.7904 10.0092H15.2959V6.44946C15.2959 2.89512 12.4079 0.00341797 8.85479 0.00341797C5.30164 0.00341797 2.41367 2.89702 2.41367 6.45367V10.0092H0.935803C0.423725 10.0092 0 10.4159 0 10.9279V21.6831C0 22.9612 1.04843 24 2.32655 24H15.3996C16.6778 24 17.7096 22.9612 17.7096 21.6831V10.9279C17.7096 10.4159 17.3024 10.0092 16.7904 10.0092ZM4.26602 6.45367C4.26602 3.91949 6.32415 1.85776 8.85479 1.85776C11.3854 1.85776 13.4436 3.91758 13.4436 6.44946V10.0092H4.26602V6.45367ZM15.8573 21.6831C15.8573 21.9387 15.6553 22.1477 15.3996 22.1477H2.32655C2.07093 22.1477 1.85235 21.9387 1.85235 21.6831V11.8615H15.8573V21.6831Z" fill="#E59F26"/>
<path d="M8.85489 19.7824C9.36696 19.7824 9.78106 19.3673 9.78106 18.8552V15.5174C9.78106 15.0054 9.36695 14.5903 8.85489 14.5903C8.34282 14.5903 7.92871 15.0054 7.92871 15.5174V18.8552C7.92871 19.3673 8.34281 19.7824 8.85489 19.7824Z" fill="#E59F26"/>
</g>
<defs>
<clipPath id="clip0_545_556">
<rect width="17.7096" height="24" fill="white"/>
</clipPath>
</defs>
</svg>
