<svg width="261" height="254" viewBox="0 0 261 254" fill="none" xmlns="http://www.w3.org/2000/svg">
<path fill-rule="evenodd" clip-rule="evenodd" d="M254.783 179.464L225.807 208.023L223.197 207.113C215.874 204.569 208.044 202.374 199.842 200.538C182.856 220.993 159.894 236.182 132.4 246.241L130.774 246.835L129.153 246.241C101.663 236.178 78.6969 220.993 61.7108 200.538C53.5091 202.374 45.6749 204.573 38.3475 207.113L35.7417 208.023L6.76562 179.464C9.45164 167.151 12.1461 154.839 14.8321 142.526L24.5415 100.446H41.9077L41.9373 100.307L42.1104 99.515L47.6261 74.275L72.1846 64.1698C75.4449 53.8792 81.3998 44.5617 89.6015 37.1818C101.672 26.3183 117.665 20.6444 133.912 21.4784C150.235 22.3124 165.431 29.5196 176.378 41.6215C182.307 48.1716 186.695 55.8885 189.326 64.1656L213.91 74.2792L219.422 99.5192L219.595 100.311L219.624 100.45H237.51L246.476 141.49L254.783 179.464Z" fill="url(#paint0_linear_31_4)"/>
<path fill-rule="evenodd" clip-rule="evenodd" d="M130.774 241.827C178.506 224.358 212.204 191.123 223.624 140.808L209.835 77.687L130.774 45.1556L51.7141 77.687L37.925 140.808C49.3449 191.123 83.0426 224.358 130.774 241.827Z" fill="black"/>
<path fill-rule="evenodd" clip-rule="evenodd" d="M130.775 237.075C175.394 219.965 206.845 188.718 218.117 141.587L205.206 82.4763L130.775 51.8489L56.3431 82.4763L43.4282 141.587C54.7087 188.718 86.1554 219.965 130.775 237.075ZM130.775 230.31C171.855 213.929 200.784 184.986 211.638 141.503L199.741 87.034L130.775 58.6559L61.808 87.034L49.911 141.503C60.7691 184.986 89.6945 213.929 130.775 230.31Z" fill="url(#paint1_linear_31_4)"/>
<path d="M130.774 133.083C160.541 133.083 184.672 109.015 184.672 79.3256C184.672 49.6364 160.541 25.5685 130.774 25.5685C101.008 25.5685 76.8767 49.6364 76.8767 79.3256C76.8767 109.015 101.008 133.083 130.774 133.083Z" fill="black"/>
<path fill-rule="evenodd" clip-rule="evenodd" d="M135.069 65.206C133.549 60.7283 131.366 54.5363 128.963 48.4622C123.092 47.0848 117.002 46.3266 110.971 46.2339C105.848 50.9306 101.025 56.1749 97.0893 61.9036C97.7903 64.5447 99.581 70.9473 102.284 78.1672C108.226 79.136 115.655 80.1343 122.15 80.9683C126.61 75.8462 130.901 70.5724 135.069 65.206ZM133.291 30.32C146.198 30.9813 157.685 36.5457 166.035 45.1135C164.882 45.1008 163.729 45.1092 162.572 45.1345C155.768 41.672 148.103 39.0183 140.843 36.651C138.718 34.5996 135.783 32.2534 131.957 30.2736C132.405 30.282 132.848 30.2989 133.291 30.32ZM179.744 74.5404C179.976 76.9287 180.035 79.3676 179.908 81.836C179.71 85.7113 179.064 89.4602 178.025 93.0323C174.021 96.7728 169.291 100.871 164.831 103.074C160.768 99.4054 156.946 95.4501 154.057 92.4383C154.733 86.3053 155.206 80.0964 155.333 73.9254C160.477 70.2649 164.97 67.2616 168.29 65.1007C172.23 68.2473 176.259 70.9431 179.744 74.5404ZM158.188 120.079C150.033 125.547 140.175 128.63 129.668 128.386C131.497 127.375 133.27 126.259 134.917 125.033C141.987 124.452 149.593 122.607 156.063 119.738C156.773 119.86 157.478 119.97 158.188 120.079ZM105.168 121.238C93.415 114.081 84.9768 102.164 82.4006 88.3187C85.4668 91.1578 89.0777 93.6599 92.5661 95.6734C95.9574 102.143 100.35 108.668 105.105 114.212C105.042 116.549 105.059 118.9 105.168 121.238ZM83.5452 65.5472C87.6713 51.4319 97.9466 40.0629 111.149 34.3216C110.515 37.6999 109.953 41.0907 109.594 44.5111C104.282 49.3721 99.2812 54.8059 95.2099 60.7494C91.675 62.3332 87.2152 63.8286 83.5452 65.5472ZM137.16 64.5152C142.612 67.3163 148.394 69.8353 154.083 72.1225C159.168 68.5084 163.627 65.5219 166.951 63.361C164.725 55.9264 162.377 49.57 161.397 46.9963C154.995 43.7697 147.836 41.2634 141.02 39.0225C139.327 40.3746 135.31 43.656 131.023 47.6745C133.435 53.7739 135.631 60.008 137.16 64.5152ZM152.647 94.1443C146.751 96.1873 140.627 97.868 134.47 98.8831C132.354 103.394 129.376 109.313 125.833 115.206C129.757 119.523 133.313 121.857 134.989 122.817C142.084 122.202 150.138 120.218 156.503 117.105C159.708 112.303 162.314 106.735 163.264 104.616C159.256 101.002 155.514 97.135 152.647 94.1443ZM132.426 98.0491C129.009 93.066 125.563 88.0997 122.053 83.1798C115.558 82.3457 108.095 81.3432 102.069 80.3617C97.727 88.5336 95.5985 93.3271 94.8087 95.21C98.0606 101.305 102.195 107.426 106.685 112.674C112.23 113.731 118.117 114.456 123.776 114.351C127.324 108.483 130.306 102.56 132.426 98.0491Z" fill="white"/>
<path fill-rule="evenodd" clip-rule="evenodd" d="M165.034 101.566C167.775 100.092 170.397 98.0617 172.741 96.0819C174.164 94.8772 175.55 93.6262 176.914 92.3583C177.889 88.9084 178.472 85.3575 178.658 81.7771C178.772 79.553 178.734 77.3205 178.536 75.1006C176.263 72.8091 173.704 70.8378 171.136 68.8833C167.323 73.7232 162.267 77.965 156.275 81.4106C156.055 84.9447 155.747 88.4788 155.367 91.996C158.509 95.269 161.685 98.504 165.034 101.566ZM148.322 123.845C144.065 125.058 139.656 125.871 135.382 126.246C135.019 126.511 134.651 126.773 134.28 127.025C139.111 126.676 143.837 125.606 148.322 123.845ZM103.834 118.896C103.804 117.484 103.809 116.069 103.838 114.658C99.1671 109.153 94.9945 102.948 91.6243 96.5748C89.1537 95.13 86.721 93.5125 84.4531 91.718C87.4263 102.779 94.3314 112.447 103.834 118.896ZM152.296 95.5849C146.764 97.4636 141.083 99.0095 135.323 100.004C132.903 105.121 130.272 110.172 127.387 115.041C129.685 117.468 132.413 119.835 135.276 121.537C142.029 120.905 149.534 119.06 155.65 116.132C155.835 115.854 156.013 115.572 156.194 115.29C158.268 112.021 160.13 108.466 161.748 104.928C158.479 101.937 155.371 98.782 152.296 95.5849ZM98.9095 89.296C98.6856 89.7551 98.4618 90.2185 98.2422 90.6818C97.5369 92.1561 96.8443 93.643 96.1981 95.1468C99.3234 100.918 103.116 106.52 107.356 111.533C112.5 112.493 117.826 113.15 123.063 113.112C125.951 108.276 128.578 103.251 130.99 98.1628C129.288 95.6818 127.577 93.205 125.858 90.7408C121.542 91.162 117.091 91.2715 112.538 91.0399C107.838 90.7998 103.281 90.2016 98.9095 89.296Z" fill="#B8BDCC"/>
<path fill-rule="evenodd" clip-rule="evenodd" d="M179.085 71.3053L179.199 71.4064C178.954 67.0762 177.552 62.6533 175.829 58.8497C174.6 56.1327 173.079 53.4327 171.343 50.9095C174.828 58.6138 177.953 67.8555 179.085 71.3053ZM153.28 78.8874C152.6 81.7265 151.376 86.7728 150.307 90.7408C147.152 92.8638 143.03 94.6877 140.142 95.8418C144.162 94.9067 148.136 93.7231 152.026 92.3751L152.178 92.3204L152.187 92.2361C152.681 87.8006 153.061 83.3482 153.28 78.8874ZM99.3361 81.5243C97.3849 83.8032 93.9767 88.702 92.7731 91.7938C90.463 91.0904 86.5986 88.6178 84.4067 87.611C87.1434 90.0331 90.2602 92.1645 93.3095 93.9379C93.9725 92.3878 94.6863 90.8545 95.4127 89.3381C96.6712 86.7096 97.9847 84.1064 99.3361 81.5243ZM116.681 44.6374C120.959 44.9871 125.212 45.6568 129.381 46.6383L129.731 46.3097C132.573 43.6434 135.538 41.057 138.571 38.5886C136.18 39.8228 131.86 42.1733 128.371 44.7133C123.988 44.0477 119.511 44.3215 116.681 44.6374ZM106.963 115.113C106.917 117.695 106.968 120.281 107.141 122.859C112.002 125.471 117.125 127.236 122.526 128.137C114.447 126.271 108.763 122.042 108.763 122.042C108.763 122.042 107.74 118.319 106.963 115.113Z" fill="#E59F26"/>
<path fill-rule="evenodd" clip-rule="evenodd" d="M42.0218 193.032L18.1179 169.477L33.2289 100.307H228.32L243.431 169.477L219.531 193.032C168.822 175.399 92.7268 175.399 42.0218 193.032Z" fill="black" stroke="#E59F26" stroke-width="3" stroke-miterlimit="10"/>
<path fill-rule="evenodd" clip-rule="evenodd" d="M41.8445 172.345L46.6041 149.392C98.555 136.12 161.157 136.12 213.108 149.392L217.867 172.345C165.579 156.448 94.1289 156.448 41.8445 172.345Z" fill="url(#paint2_linear_31_4)"/>
<path fill-rule="evenodd" clip-rule="evenodd" d="M150.599 185.803L151.764 189.405L155.561 189.396L152.486 191.616L153.669 195.214L150.603 192.981L147.537 195.214L148.715 191.616L145.64 189.396L149.437 189.405L150.599 185.803Z" fill="url(#paint3_linear_31_4)"/>
<path fill-rule="evenodd" clip-rule="evenodd" d="M148.149 194.367L149.091 191.498L150.594 190.782L148.149 194.367ZM146.637 189.725L149.665 189.729L150.594 190.778L146.637 189.725ZM151.528 189.729L150.598 186.856V190.778L151.528 189.729ZM152.102 191.494L154.556 189.725L150.594 190.778L152.102 191.494ZM150.594 192.585L153.039 194.367L150.594 190.778V192.585Z" fill="url(#paint4_linear_31_4)"/>
<path fill-rule="evenodd" clip-rule="evenodd" d="M135.699 185.803L136.864 189.405L140.661 189.396L137.586 191.616L138.769 195.214L135.703 192.981L132.637 195.214L133.815 191.616L130.74 189.396L134.537 189.405L135.699 185.803Z" fill="url(#paint5_linear_31_4)"/>
<path fill-rule="evenodd" clip-rule="evenodd" d="M133.253 194.367L134.195 191.498L135.699 190.782L133.253 194.367ZM131.737 189.725L134.765 189.729L135.694 190.778L131.737 189.725ZM136.628 189.729L135.699 186.856V190.778L136.628 189.729ZM137.202 191.494L139.656 189.725L135.694 190.778L137.202 191.494ZM135.699 192.585L138.144 194.367L135.699 190.778V192.585Z" fill="url(#paint6_linear_31_4)"/>
<path fill-rule="evenodd" clip-rule="evenodd" d="M120.799 185.803L121.965 189.405L125.761 189.396L122.687 191.616L123.869 195.214L120.803 192.981L117.737 195.214L118.915 191.616L115.841 189.396L119.638 189.405L120.799 185.803Z" fill="url(#paint7_linear_31_4)"/>
<path fill-rule="evenodd" clip-rule="evenodd" d="M118.354 194.367L119.296 191.498L120.799 190.782L118.354 194.367ZM116.842 189.725L119.87 189.729L120.799 190.778L116.842 189.725ZM121.728 189.729L120.799 186.856V190.778L121.728 189.729ZM122.307 191.494L124.76 189.725L120.799 190.778L122.307 191.494ZM120.799 192.585L123.244 194.367L120.799 190.778V192.585Z" fill="url(#paint8_linear_31_4)"/>
<path fill-rule="evenodd" clip-rule="evenodd" d="M105.899 185.803L107.065 189.405L110.861 189.396L107.787 191.616L108.969 195.214L105.903 192.981L102.837 195.214L104.015 191.616L100.941 189.396L104.738 189.405L105.899 185.803Z" fill="url(#paint9_linear_31_4)"/>
<path fill-rule="evenodd" clip-rule="evenodd" d="M103.454 194.367L104.396 191.498L105.899 190.782L103.454 194.367ZM101.942 189.725L104.97 189.729L105.899 190.778L101.942 189.725ZM106.832 189.729L105.903 186.856V190.778L106.832 189.729ZM107.407 191.494L109.861 189.725L105.899 190.778L107.407 191.494ZM105.899 192.585L108.344 194.367L105.899 190.778V192.585Z" fill="url(#paint10_linear_31_4)"/>
<path d="M68.8987 159.405C66.0649 160.117 64.6501 160.496 61.8289 161.301C61.8838 161.84 61.9134 162.109 61.9725 162.653C63.0072 162.371 63.5225 162.232 64.5572 161.958C64.6332 162.686 64.667 163.053 64.743 163.786C62.8847 164.274 61.9556 164.527 60.1058 165.054C59.882 163.074 59.7722 162.084 59.5483 160.104C61.7022 159.456 62.7834 159.148 64.9499 158.554C63.3535 157.64 62.5553 157.194 60.9505 156.334C61.5037 155.631 61.7825 155.277 62.3399 154.569C64.553 155.795 65.6552 156.44 67.8556 157.771C68.2019 157.682 68.375 157.636 68.7171 157.547C68.7931 158.293 68.8269 158.664 68.8987 159.405Z" fill="black"/>
<path d="M71.3947 158.79C70.0855 159.106 69.4309 159.266 68.1259 159.599C68.0541 158.857 68.0203 158.491 67.9485 157.75C69.2577 157.408 69.9123 157.244 71.2258 156.92C71.2933 157.67 71.3271 158.044 71.3947 158.79Z" fill="black"/>
<path d="M74.2751 158.116C72.9616 158.415 72.307 158.567 70.9978 158.883C70.9302 158.137 70.8964 157.762 70.8289 157.017C72.1423 156.692 72.7969 156.536 74.1146 156.229C74.1779 156.987 74.2075 157.362 74.2751 158.116Z" fill="black"/>
<path d="M73.139 158.377C73.0756 157.627 73.0419 157.248 72.9785 156.499C73.8147 156.301 74.2371 156.204 75.0733 156.01C74.9381 154.363 74.8706 153.542 74.7312 151.895C75.597 151.688 76.032 151.587 76.8977 151.385C77.0836 153.807 77.1723 155.016 77.3581 157.438C75.6688 157.8 74.8241 157.986 73.139 158.377ZM76.4458 160.686C76.3445 160.808 76.1502 160.85 76.0151 160.761C75.7279 160.584 75.4365 160.395 75.1451 160.189C74.9888 160.087 74.9761 159.906 75.0733 159.78C75.4576 159.325 75.6561 159.06 75.7912 158.912C75.8841 158.811 75.9306 158.761 76.0277 158.659C76.0784 158.579 76.2093 158.622 76.4374 158.756C76.5134 158.807 76.5514 158.832 76.6317 158.883C76.7668 158.954 77.1723 159.241 77.3496 159.392C77.3876 159.435 77.3961 159.519 77.3454 159.565C76.9822 160.012 76.8048 160.239 76.4458 160.686Z" fill="black"/>
<path d="M78.2703 160.652C78.2069 159.847 78.1774 159.447 78.114 158.643C78.9882 158.462 79.4232 158.373 80.2975 158.205C80.0778 155.239 79.968 153.756 79.7442 150.791C80.6438 150.597 81.0914 150.5 81.991 150.315C82.2571 154.114 82.3922 156.014 82.6583 159.818C80.9014 160.13 80.0229 160.298 78.2703 160.652Z" fill="black"/>
<path d="M86.1003 155.749C85.2218 155.9 84.7826 155.98 83.9041 156.141C83.6296 152.118 83.4945 150.109 83.22 146.086C84.1111 145.901 84.5588 145.808 85.4499 145.627C85.7117 149.675 85.8426 151.701 86.1003 155.749Z" fill="black"/>
<path d="M93.7782 154.544C92.262 154.759 91.506 154.868 89.9899 155.109C89.7534 150.989 89.6351 148.925 89.4028 144.805C90.2982 144.641 90.7458 144.561 91.6412 144.405C91.8059 147.758 91.8861 149.435 92.0508 152.788C92.7012 152.686 93.0264 152.64 93.6768 152.543C93.7148 153.344 93.7359 153.744 93.7782 154.544Z" fill="black"/>
<path d="M92.6338 152.699C93.2462 152.606 93.5545 152.56 94.1711 152.476C94.0824 150.694 94.0402 149.801 93.9515 148.015C94.8426 147.876 95.2902 147.809 96.1814 147.682C96.2996 150.281 96.3587 151.583 96.477 154.182C94.9819 154.376 94.2344 154.477 92.7394 154.692C92.6971 153.895 92.676 153.495 92.6338 152.699ZM95.0031 146.751C94.8975 146.874 94.6948 146.903 94.5596 146.802C94.2133 146.537 94.0401 146.406 93.6896 146.141C93.5334 146.023 93.5249 145.833 93.6305 145.707C94.0359 145.235 94.2471 144.986 94.3907 144.843C94.492 144.742 94.5385 144.692 94.6399 144.591C94.6905 144.51 94.8257 144.561 95.058 144.721C95.134 144.78 95.172 144.81 95.2522 144.869C95.3874 144.953 95.7928 145.281 95.9702 145.45C96.0082 145.496 96.0124 145.585 95.9618 145.631C95.5732 146.082 95.3832 146.305 95.0031 146.751Z" fill="black"/>
<path d="M101.604 153.575C100.083 153.735 99.3233 153.824 97.8071 154.009C97.6255 149.797 97.5368 147.691 97.3552 143.478C98.2548 143.344 98.7025 143.28 99.6062 143.154C99.7245 146.579 99.7836 148.293 99.9019 151.722C100.556 151.646 100.882 151.608 101.532 151.532C101.562 152.349 101.574 152.758 101.604 153.575Z" fill="black"/>
<path d="M103.238 151.351C102.546 150.281 102.2 149.751 101.503 148.697C101.477 148.011 101.465 147.665 101.439 146.979C104.619 146.591 106.212 146.423 109.4 146.141C109.417 146.844 109.421 147.194 109.438 147.897C108.805 149.11 108.492 149.713 107.863 150.917C108.986 150.82 109.548 150.778 110.676 150.698C110.693 151.537 110.701 151.954 110.718 152.788C106.571 153.07 104.501 153.255 100.362 153.718C100.333 152.906 100.316 152.497 100.286 151.684C101.465 151.541 102.056 151.473 103.238 151.351ZM105.549 151.12C106.017 150.058 106.254 149.527 106.731 148.462C105.726 148.558 105.228 148.609 104.222 148.714C104.755 149.675 105.021 150.155 105.549 151.12Z" fill="black"/>
<path d="M109.89 152.842C109.873 152.008 109.865 151.591 109.848 150.757C110.452 150.711 110.752 150.69 111.356 150.648C111.322 148.782 111.305 147.847 111.271 145.981C113.556 145.795 114.7 145.719 116.985 145.589C117.006 148.331 117.015 149.704 117.036 152.446C114.177 152.556 112.749 152.636 109.89 152.842ZM115.017 150.416C115.005 149.376 115 148.858 114.988 147.821C114.291 147.863 113.945 147.884 113.252 147.931C113.269 148.963 113.273 149.481 113.29 150.517C113.978 150.475 114.325 150.454 115.017 150.416Z" fill="black"/>
<path d="M118.501 156.124C118.497 155.273 118.497 154.843 118.493 153.992C120.022 153.946 120.786 153.929 122.315 153.904C122.315 153.255 122.319 152.931 122.319 152.282C120.786 152.312 120.017 152.333 118.484 152.383C118.472 149.633 118.468 148.255 118.455 145.505C120.921 145.378 122.154 145.332 124.625 145.273C124.596 149.582 124.579 151.739 124.549 156.048C122.129 156.048 120.921 156.061 118.501 156.124ZM122.332 147.602C121.635 147.623 121.289 147.636 120.592 147.661C120.592 148.668 120.592 149.173 120.592 150.18C121.293 150.159 121.639 150.151 122.34 150.134C122.336 149.123 122.336 148.613 122.332 147.602Z" fill="black"/>
<path d="M130.449 149.927C130.432 150.867 130.424 151.334 130.407 152.274C129.511 152.261 129.064 152.257 128.168 152.248C128.181 151.313 128.19 150.85 128.202 149.915C129.098 149.915 129.549 149.919 130.449 149.927Z" fill="black"/>
<path d="M133.912 149.986C133.887 150.93 133.878 151.406 133.853 152.349C132.958 152.324 132.51 152.312 131.615 152.291C131.636 151.351 131.644 150.879 131.665 149.94C132.561 149.957 133.013 149.965 133.912 149.986Z" fill="black"/>
<path d="M146.869 153.103C143.981 152.855 142.536 152.754 139.643 152.598C139.618 153.264 139.605 153.601 139.584 154.266C140.644 154.338 141.172 154.376 142.228 154.456C142.19 155.357 142.173 155.804 142.135 156.705C140.239 156.562 139.293 156.503 137.396 156.397C137.468 153.946 137.506 152.72 137.578 150.264C139.8 150.353 140.915 150.412 143.132 150.555C141.7 148.841 140.982 147.994 139.525 146.326C140.18 145.707 140.505 145.399 141.164 144.78C143.166 147.126 144.158 148.323 146.109 150.766C146.464 150.791 146.637 150.808 146.992 150.833C146.937 151.743 146.916 152.194 146.869 153.103Z" fill="black"/>
<path d="M149.407 153.335C148.077 153.209 147.414 153.146 146.084 153.04C146.13 152.135 146.151 151.68 146.198 150.774C147.537 150.875 148.204 150.934 149.538 151.056C149.483 151.966 149.458 152.421 149.407 153.335Z" fill="black"/>
<path d="M148.985 153.293C149.036 152.379 149.061 151.924 149.112 151.014C149.728 151.069 150.037 151.098 150.653 151.157C150.772 149.119 150.831 148.099 150.953 146.061C151.806 146.132 152.233 146.17 153.086 146.25C153.061 146.667 153.048 146.878 153.018 147.299C155.92 147.577 157.368 147.741 160.261 148.108C160.059 150.69 159.961 151.979 159.759 154.561C155.459 153.959 153.301 153.702 148.985 153.293ZM157.96 150.29C155.924 150.037 154.906 149.923 152.866 149.717C152.824 150.378 152.803 150.707 152.761 151.368C154.792 151.583 155.806 151.701 157.833 151.958C157.884 151.292 157.909 150.959 157.96 150.29Z" fill="black"/>
<path d="M173.941 157.008C170.592 156.326 168.915 156.014 165.549 155.454C165.486 156.183 165.452 156.545 165.384 157.269C166.461 157.455 166.998 157.547 168.07 157.745C167.982 158.676 167.935 159.14 167.846 160.071C165.959 159.717 165.017 159.548 163.125 159.237C163.344 156.654 163.458 155.361 163.678 152.779C164.941 152.973 165.57 153.07 166.833 153.28C166.305 151.865 166.039 151.162 165.502 149.759C165.574 148.967 165.608 148.571 165.68 147.779C168.852 148.247 170.44 148.508 173.599 149.085C173.514 149.89 173.472 150.29 173.387 151.094C172.598 152.295 172.205 152.893 171.424 154.093C172.534 154.3 173.092 154.409 174.202 154.628C174.097 155.576 174.042 156.052 173.941 157.008ZM169.13 153.668C169.738 152.594 170.043 152.055 170.659 150.976C169.662 150.804 169.164 150.715 168.167 150.555C168.556 151.793 168.75 152.417 169.13 153.668Z" fill="black"/>
<path d="M176.572 157.56C175.263 157.278 174.604 157.139 173.29 156.878C173.392 155.921 173.442 155.446 173.544 154.494C174.866 154.75 175.524 154.885 176.842 155.163C176.732 156.119 176.677 156.6 176.572 157.56Z" fill="black"/>
<path d="M179.448 158.2C178.139 157.901 177.484 157.758 176.175 157.476C176.285 156.515 176.34 156.035 176.445 155.079C177.763 155.353 178.422 155.496 179.735 155.791C179.621 156.751 179.562 157.236 179.448 158.2Z" fill="black"/>
<path d="M187.126 144.835C187.071 145.235 187.046 145.437 186.991 145.837C185.377 145.475 184.571 145.298 182.958 144.961C183.008 144.561 183.034 144.363 183.08 143.963C184.702 144.3 185.508 144.473 187.126 144.835Z" fill="black"/>
<path d="M180.82 156.031C181.087 153.879 181.217 152.8 181.479 150.648C183.73 151.136 184.858 151.393 187.101 151.937C186.674 155.083 186.463 156.659 186.041 159.801C183.202 159.064 181.779 158.718 178.928 158.074C179.042 157.109 179.102 156.629 179.216 155.665C179.853 155.812 180.179 155.884 180.82 156.031ZM186.801 148.959C186.336 149.325 186.104 149.51 185.639 149.877C185.513 149.978 185.31 149.932 185.204 149.755C184.968 149.393 184.735 149.013 184.499 148.63C184.119 148.938 183.929 149.093 183.553 149.405C183.426 149.506 183.224 149.464 183.114 149.287C182.877 148.929 182.641 148.55 182.408 148.154C182.282 147.952 182.311 147.72 182.438 147.615C182.919 147.24 183.194 147.013 183.359 146.899C183.477 146.819 183.532 146.781 183.65 146.701C183.718 146.629 183.836 146.739 184.026 147.021C184.089 147.122 184.119 147.173 184.182 147.274C184.241 147.396 184.461 147.75 184.617 148.024C185.056 147.682 185.293 147.472 185.462 147.358C185.58 147.278 185.635 147.24 185.753 147.16C185.821 147.088 185.939 147.202 186.129 147.484C186.193 147.585 186.222 147.636 186.285 147.741C186.378 147.893 186.704 148.453 186.839 148.727C186.881 148.803 186.864 148.908 186.801 148.959ZM184.761 153.887C184.081 153.723 183.739 153.643 183.055 153.487C182.903 154.679 182.827 155.273 182.679 156.461C183.354 156.621 183.697 156.701 184.372 156.869C184.524 155.677 184.605 155.083 184.761 153.887Z" fill="black"/>
<path d="M194.681 162.223C194.12 162.055 193.841 161.97 193.279 161.806C193.017 163.537 192.886 164.401 192.625 166.128C190.293 165.42 189.128 165.083 186.784 164.439C186.919 163.461 186.986 162.973 187.122 161.996C188.608 162.396 189.347 162.602 190.825 163.028C190.935 162.286 190.99 161.916 191.096 161.174C189.609 160.753 188.866 160.551 187.375 160.155C187.81 157 188.03 155.424 188.465 152.274C190.88 152.872 192.084 153.188 194.487 153.853C194.153 156.048 193.989 157.147 193.655 159.342C194.221 159.506 194.5 159.586 195.066 159.75C194.914 160.745 194.838 161.237 194.681 162.223ZM191.476 158.727C191.636 157.569 191.721 156.991 191.881 155.833C191.205 155.648 190.863 155.559 190.188 155.378C190.023 156.528 189.943 157.105 189.778 158.259C190.458 158.445 190.796 158.537 191.476 158.727Z" fill="black"/>
<path d="M193.655 161.92C193.807 160.934 193.879 160.441 194.031 159.456C194.859 159.696 195.273 159.818 196.1 160.066C196.438 157.914 196.607 156.84 196.945 154.687C197.802 154.936 198.233 155.062 199.09 155.315C198.571 158.466 198.313 160.037 197.794 163.188C196.143 162.661 195.315 162.408 193.655 161.92ZM200.26 152.897C199.783 153.251 199.547 153.428 199.074 153.777C198.943 153.874 198.744 153.82 198.643 153.63C198.419 153.247 198.199 152.842 197.98 152.438C197.591 152.737 197.397 152.884 197.008 153.184C196.877 153.285 196.679 153.226 196.578 153.04C196.354 152.661 196.13 152.257 195.91 151.836C195.792 151.621 195.83 151.385 195.957 151.284C196.447 150.922 196.73 150.707 196.899 150.597C197.017 150.521 197.076 150.483 197.194 150.408C197.262 150.336 197.376 150.458 197.557 150.757C197.616 150.863 197.646 150.917 197.705 151.027C197.76 151.157 197.967 151.532 198.111 151.823C198.562 151.499 198.803 151.292 198.972 151.183C199.09 151.107 199.15 151.069 199.268 150.993C199.335 150.922 199.449 151.044 199.631 151.347C199.69 151.456 199.72 151.511 199.779 151.617C199.868 151.777 200.172 152.371 200.294 152.657C200.345 152.737 200.324 152.847 200.26 152.897Z" fill="black"/>
<path fill-rule="evenodd" clip-rule="evenodd" d="M86.1045 172.084C115.406 171.183 144.441 171.183 173.746 172.084C145.096 168.192 114.751 168.192 86.1045 172.084Z" fill="#E59F26"/>
<path fill-rule="evenodd" clip-rule="evenodd" d="M246.594 140.505C243.448 139.696 240.225 138.912 236.931 138.167C174.105 123.908 85.0614 121.398 24.3641 138.028C22.4045 138.563 20.4744 139.119 18.5782 139.696C17.818 139.928 16.0315 140.564 15.0264 140.922L24.7611 98.5082H237.455L246.594 140.505Z" fill="#E59F26"/>
<path d="M54.3538 119.384C47.2587 119.384 43.9223 114.047 43.8209 109.089C43.7618 106.137 44.8387 103.314 46.7772 101.347C48.6862 99.4054 51.3088 98.3776 54.3538 98.3776C55.038 98.3776 55.5913 98.9294 55.5913 99.6118C55.5913 103.483 57.8845 104.641 57.9859 104.688C58.5053 104.94 58.7883 105.517 58.6574 106.078C58.5264 106.638 58.0365 107.038 57.458 107.038H54.3538C53.7921 107.038 53.3487 107.202 53.0235 107.531C52.6898 107.872 52.4998 108.373 52.5082 108.908C52.5125 109.216 52.6223 110.745 54.3538 110.745H70.8289V102.708C70.8289 100.319 72.7759 98.3776 75.1705 98.3776H78.2746C78.9588 98.3776 79.512 98.9294 79.512 99.6118V118.15C79.512 118.832 78.9588 119.384 78.2746 119.384H54.3538ZM61.2547 98.365C60.938 98.365 60.6212 98.2428 60.3805 98.0027L56.6766 94.3085C56.1952 93.8283 56.1952 93.0491 56.6724 92.5647L60.3763 88.8494C60.6085 88.6178 60.9253 88.4872 61.2505 88.4872C61.5799 88.4872 61.8924 88.6178 62.1247 88.8494L64.3546 91.0735L66.5845 88.8494C66.8252 88.6093 67.142 88.4872 67.4587 88.4872C67.7755 88.4872 68.0922 88.6093 68.333 88.8494L72.0579 92.5647C72.2902 92.7963 72.4211 93.1123 72.4211 93.4408C72.4211 93.7694 72.2902 94.0853 72.0579 94.3127L68.333 98.0069C68.0922 98.247 67.7755 98.365 67.4587 98.365C67.142 98.365 66.8252 98.2428 66.5845 98.0027L64.3546 95.7786L62.1247 98.0027C61.8882 98.2428 61.5714 98.365 61.2547 98.365Z" fill="white"/>
<path d="M67.4672 89.7214L71.1921 93.4366L67.4672 97.1308L64.3631 94.0348L61.2589 97.1308L57.5551 93.4366L61.2589 89.7214L64.3631 92.8174L67.4672 89.7214ZM78.2788 99.6076V118.146H54.3538C48.2343 118.146 45.1513 113.647 45.0584 109.06C44.9654 104.38 48.0738 99.6076 54.3538 99.6076C54.3538 104.401 57.458 105.804 57.458 105.804H54.3538C52.2844 105.804 51.2497 107.388 51.2708 108.925C51.2919 110.463 52.3055 111.975 54.3538 111.975H72.0664V102.704C72.0664 101.006 73.4474 99.6076 75.1705 99.6076H78.2788ZM61.2547 87.253C61.2547 87.253 61.2505 87.253 61.2547 87.253C60.5917 87.253 59.9624 87.5141 59.4978 87.9817L55.794 91.6969C54.8311 92.6615 54.8353 94.2201 55.7982 95.1805L59.502 98.8746C59.9835 99.3548 60.617 99.5992 61.2505 99.5992C61.884 99.5992 62.5175 99.3591 62.9989 98.8746L64.3546 97.5225L65.7103 98.8746C66.1918 99.3548 66.8252 99.5992 67.4587 99.5992C68.088 99.5992 68.7215 99.3591 69.203 98.8831L72.9279 95.1889C73.3925 94.7256 73.6586 94.0979 73.6586 93.4408C73.6586 92.7837 73.3967 92.1561 72.9321 91.6927L69.2072 87.9775C68.7426 87.5142 68.1134 87.253 67.4587 87.253C66.8041 87.253 66.1749 87.5142 65.7103 87.9775L64.3546 89.3296L62.9989 87.9775C62.5386 87.5099 61.9093 87.253 61.2547 87.253ZM78.2788 97.1392H75.1747C72.0959 97.1392 69.5957 99.6371 69.5957 102.704V109.506H54.3538C54.1004 109.506 53.7541 109.506 53.7457 108.887C53.7415 108.689 53.8048 108.495 53.9062 108.394C53.9864 108.314 54.1385 108.272 54.3538 108.272H57.458C58.6532 108.272 59.7512 107.451 59.9624 106.276C60.1735 105.113 59.6034 103.997 58.5053 103.563C58.2182 103.394 56.8245 102.438 56.8245 99.6034C56.8245 98.2386 55.718 97.135 54.3496 97.135C50.9625 97.135 48.04 98.2891 45.8903 100.475C43.7238 102.678 42.5159 105.825 42.5835 109.106C42.6426 112.105 43.7196 114.902 45.6116 116.983C47.7739 119.359 50.7978 120.614 54.3496 120.614H78.2746C79.643 120.614 80.7495 119.511 80.7495 118.146V99.6076C80.7537 98.247 79.643 97.1392 78.2788 97.1392Z" fill="#E59F26"/>
<path d="M152.816 98.365C152.499 98.365 152.182 98.2428 151.942 98.0027L148.238 94.3085C147.756 93.8283 147.756 93.0491 148.234 92.5647L151.937 88.8494C152.17 88.6178 152.482 88.4872 152.812 88.4872C153.141 88.4872 153.454 88.6178 153.686 88.8494L155.916 91.0735L158.15 88.8494C158.391 88.6093 158.707 88.4872 159.024 88.4872C159.341 88.4872 159.658 88.6093 159.898 88.8494L163.623 92.5647C163.856 92.7963 163.987 93.1123 163.987 93.4408C163.987 93.7694 163.856 94.0853 163.623 94.3127L159.898 98.0069C159.658 98.247 159.341 98.365 159.024 98.365C158.707 98.365 158.391 98.2428 158.15 98.0027L155.916 95.7786L153.686 98.0027C153.449 98.247 153.133 98.365 152.816 98.365Z" fill="white"/>
<path d="M159.028 89.7214L162.753 93.4366L159.028 97.1308L155.92 94.0348L152.816 97.1308L149.112 93.4366L152.816 89.7214L155.92 92.8174L159.028 89.7214ZM152.816 87.253C152.812 87.253 152.812 87.253 152.816 87.253C152.153 87.253 151.523 87.5141 151.059 87.9817L147.355 91.6969C146.392 92.6615 146.396 94.2201 147.359 95.1847L151.063 98.8789C151.545 99.3591 152.178 99.6034 152.812 99.6034C153.445 99.6034 154.079 99.3633 154.56 98.8789L155.916 97.5267L157.271 98.8789C157.753 99.3591 158.386 99.5992 159.02 99.5992C159.649 99.5992 160.283 99.3591 160.764 98.8831L164.489 95.1889C164.954 94.7256 165.22 94.0979 165.22 93.4408C165.22 92.7837 164.958 92.1561 164.493 91.6927L160.768 87.9775C160.287 87.4973 159.653 87.253 159.02 87.253C158.386 87.253 157.753 87.4931 157.271 87.9733L155.911 89.3254L154.556 87.9733C154.1 87.5142 153.47 87.253 152.816 87.253Z" fill="#E59F26"/>
<path d="M128.012 119.384C126.796 119.384 125.698 118.883 124.908 118.078C124.119 118.883 123.016 119.384 121.8 119.384H106.3C105.553 119.384 104.848 119.195 104.231 118.862C104.007 119.178 103.636 119.384 103.217 119.384H84.4913C83.8072 119.384 83.2539 118.832 83.2539 118.15V85.6144C83.2539 84.9952 83.7142 84.4729 84.3266 84.3929C84.3815 84.3845 84.4364 84.3802 84.4913 84.3802C85.0404 84.3802 85.5345 84.7467 85.6823 85.2901C87.8193 93.1207 94.906 96.8738 94.9736 96.9118C95.4804 97.1729 95.7422 97.7458 95.6028 98.3018C95.4677 98.8536 94.9693 99.2411 94.3992 99.2411H91.9328V110.745H117.454V108.879C117.454 108.02 116.973 107.017 115.609 107.017H112.479C112.01 107.017 111.58 106.752 111.373 106.33L108.29 100.134C108.1 99.7508 108.121 99.2959 108.345 98.9336C108.568 98.5714 108.97 98.3481 109.396 98.3481H143.512C144.095 98.3481 144.597 98.7525 144.72 99.3212C144.842 99.8898 144.551 100.467 144.019 100.707C143.934 100.749 141.641 101.903 141.641 105.779C141.641 106.461 141.088 107.013 140.404 107.013H137.295C136.983 107.013 135.429 107.101 135.429 108.875V110.741H145.501C145.015 107.809 145.687 104.73 147.385 102.405C149.294 99.7887 152.313 98.3481 155.886 98.3481C162.817 98.3481 166.44 103.643 166.44 108.875V118.146C166.44 118.828 165.887 119.38 165.203 119.38H128.012V119.384ZM155.899 107.017C154.518 107.017 154.032 108.02 154.032 108.879C154.032 109.738 154.522 110.741 155.899 110.741H157.766V108.875C157.766 108.567 157.673 107.017 155.899 107.017ZM126.775 110.745V108.879C126.775 108.217 126.817 107.598 126.902 107.017H125.994C126.095 107.628 126.146 108.247 126.146 108.879V110.745H126.775Z" fill="white"/>
<path d="M84.4912 85.6102C86.7929 94.0558 94.4075 98.0027 94.4075 98.0027H90.7037V111.975H118.7V108.875C118.7 107.312 117.665 105.779 115.617 105.779H112.487L109.404 99.5823H143.52C143.52 99.5823 140.416 100.981 140.416 105.779H137.308C135.741 105.779 134.204 106.811 134.204 108.875V111.975H147.085C145.341 106.583 148.284 99.5823 155.899 99.5823C162.111 99.5823 165.215 104.241 165.215 108.875V118.146H128.017C126.293 118.146 124.912 116.768 124.912 115.05C124.912 116.768 123.51 118.146 121.804 118.146H106.3C104.708 118.146 103.407 116.975 103.217 115.446V118.146H84.4912V85.6102ZM155.899 111.979H159.003V108.879C159.003 107.316 157.968 105.783 155.899 105.783C151.756 105.783 151.756 111.979 155.899 111.979ZM124.908 111.979H128.012V108.879C128.012 107.733 128.152 106.701 128.452 105.783H124.427C124.748 106.768 124.912 107.826 124.912 108.879V111.979H124.908ZM84.4912 83.1418C84.3814 83.1418 84.2716 83.1503 84.1618 83.1629C82.9328 83.3272 82.0164 84.3718 82.0164 85.6102V118.146C82.0164 119.511 83.1229 120.614 84.4912 120.614H103.217C103.661 120.614 104.075 120.496 104.434 120.294C105.021 120.5 105.646 120.614 106.296 120.614H121.8C122.949 120.614 124.017 120.265 124.908 119.671C125.795 120.265 126.864 120.614 128.012 120.614H165.211C166.58 120.614 167.686 119.511 167.686 118.146V108.875C167.686 103.032 163.636 97.114 155.895 97.114C151.916 97.114 148.542 98.7357 146.392 101.68C144.779 103.891 143.993 106.705 144.137 109.506H136.674V108.875C136.674 108.626 136.674 108.247 137.304 108.247H140.412C141.78 108.247 142.887 107.143 142.887 105.779C142.887 102.944 144.28 101.988 144.568 101.819C145.666 101.389 146.236 100.269 146.025 99.1106C145.809 97.9396 144.715 97.114 143.52 97.114H109.404C108.547 97.114 107.753 97.5562 107.301 98.2808C106.849 99.0053 106.807 99.9151 107.187 100.678L110.27 106.874C110.688 107.712 111.546 108.247 112.487 108.247H115.617C115.845 108.247 116.225 108.247 116.225 108.875V109.506H93.1785V100.471H94.4075C95.5478 100.471 96.5403 99.6919 96.8106 98.5882C97.0809 97.4846 96.5614 96.3347 95.5478 95.8124C95.4887 95.7829 88.8539 92.2109 86.8774 84.9615C86.5817 83.879 85.5935 83.1418 84.4912 83.1418ZM155.899 109.511C155.662 109.511 155.27 109.511 155.27 108.883C155.27 108.255 155.667 108.255 155.899 108.255C156.148 108.255 156.528 108.255 156.528 108.883V109.515H155.899V109.511Z" fill="#E59F26"/>
<path d="M209.476 98.365C209.159 98.365 208.842 98.2428 208.602 98.0027L206.372 95.7786L204.138 98.0027C203.897 98.2428 203.58 98.365 203.263 98.365C202.947 98.365 202.63 98.2428 202.389 98.0027L198.685 94.3085C198.204 93.8283 198.204 93.0491 198.681 92.5647L202.385 88.8494C202.617 88.6178 202.93 88.4872 203.259 88.4872C203.259 88.4872 203.259 88.4872 203.263 88.4872C203.593 88.4872 203.905 88.6178 204.138 88.8494L206.372 91.0735L208.602 88.8494C208.842 88.6093 209.159 88.4872 209.476 88.4872C209.793 88.4872 210.109 88.6093 210.35 88.8494L214.075 92.5647C214.307 92.7963 214.438 93.1123 214.438 93.4408C214.438 93.7694 214.307 94.0853 214.075 94.3127L210.35 98.0069C210.105 98.247 209.793 98.365 209.476 98.365Z" fill="white"/>
<path d="M209.476 89.7214L213.201 93.4366L209.476 97.1308L206.372 94.0348L203.263 97.1308L199.559 93.4366L203.263 89.7214L206.372 92.8174L209.476 89.7214ZM203.263 87.253H203.259C202.6 87.253 201.971 87.5141 201.506 87.9817L197.803 91.6969C196.84 92.6615 196.844 94.2201 197.807 95.1847L201.511 98.8789C201.992 99.3591 202.626 99.6034 203.259 99.6034C203.893 99.6034 204.526 99.3633 205.008 98.8831L206.363 97.5309L207.719 98.8831C208.2 99.3633 208.834 99.6076 209.467 99.6076C210.097 99.6076 210.73 99.3675 211.212 98.8915L214.937 95.1973C215.401 94.734 215.667 94.1064 215.667 93.4492C215.667 92.7921 215.405 92.1645 214.941 91.7011L211.216 87.9859C210.734 87.5057 210.101 87.2614 209.467 87.2614C208.834 87.2614 208.2 87.5015 207.719 87.9859L206.363 89.3381L205.008 87.9859C204.547 87.5142 203.918 87.253 203.263 87.253Z" fill="#E59F26"/>
<path d="M176.83 128.677C176.145 128.677 175.592 128.125 175.592 127.442C175.592 123.571 173.295 122.417 173.198 122.367C172.678 122.114 172.395 121.537 172.522 120.976C172.653 120.416 173.143 120.016 173.721 120.016H176.83C177.767 120.016 178.65 119.789 179.402 119.376C172.851 119.123 169.405 114.009 169.38 108.955C169.35 106.04 170.436 103.251 172.357 101.318C174.266 99.397 176.876 98.3818 179.913 98.3818C186.843 98.3818 190.467 103.664 190.467 108.883V110.749H203.521V102.712C203.521 100.324 205.468 98.3818 207.862 98.3818H210.971C211.655 98.3818 212.208 98.9336 212.208 99.616V118.154C212.208 118.837 211.655 119.388 210.971 119.388H198.567C197.819 119.388 197.114 119.199 196.493 118.866C196.27 119.182 195.898 119.388 195.484 119.388H189.871C188.004 125.791 182.088 128.677 176.83 128.677ZM179.913 107.017C179.347 107.017 178.899 107.181 178.578 107.506C178.244 107.843 178.063 108.344 178.071 108.883C178.071 109.751 178.553 110.745 179.917 110.745H181.784V108.879C181.779 108.02 181.294 107.017 179.913 107.017Z" fill="white"/>
<path d="M210.971 99.6118V118.15H198.567C196.971 118.15 195.666 116.966 195.484 115.425V118.15H188.908C187.574 124.346 182.189 127.442 176.83 127.442C176.83 122.649 173.721 121.25 173.721 121.25H176.83C179.013 121.25 181.201 120.214 182.303 118.15H179.913C173.747 118.15 170.638 113.563 170.617 108.946C170.571 104.287 173.679 99.6118 179.913 99.6118C186.125 99.6118 189.229 104.245 189.229 108.879V111.979H204.758V102.708C204.758 101.01 206.16 99.6118 207.862 99.6118H210.971ZM179.913 111.979H183.017V108.879C183.017 107.341 181.982 105.783 179.913 105.783C177.843 105.783 176.804 107.346 176.83 108.904C176.83 110.437 177.864 111.979 179.913 111.979ZM210.971 97.1434H207.862C204.788 97.1434 202.283 99.6413 202.283 102.708V109.511H191.704V108.879C191.704 103.049 187.654 97.1434 179.913 97.1434C176.542 97.1434 173.624 98.285 171.479 100.446C169.325 102.615 168.109 105.724 168.142 108.971C168.159 112.784 169.929 116.629 173.333 118.807C172.298 118.963 171.407 119.73 171.217 120.774C171.006 121.937 171.576 123.053 172.674 123.487C172.961 123.651 174.355 124.607 174.355 127.442C174.355 128.807 175.461 129.911 176.83 129.911C182.311 129.911 188.461 127.021 190.771 120.618H195.484C195.927 120.618 196.341 120.505 196.7 120.298C197.287 120.505 197.912 120.618 198.567 120.618H210.971C212.339 120.618 213.446 119.515 213.446 118.15V99.6118C213.446 98.247 212.339 97.1434 210.971 97.1434ZM179.913 109.511C179.685 109.511 179.304 109.511 179.304 108.904C179.304 108.891 179.304 108.879 179.304 108.866C179.3 108.664 179.359 108.474 179.457 108.373C179.558 108.272 179.761 108.251 179.913 108.251C180.132 108.251 180.542 108.251 180.542 108.879V109.511H179.913Z" fill="#E59F26"/>
<path fill-rule="evenodd" clip-rule="evenodd" d="M165.494 200.449V206.085C163.712 207.358 161.896 208.596 160.042 209.796V200.449H165.494Z" fill="#E59F26"/>
<path fill-rule="evenodd" clip-rule="evenodd" d="M156.866 200.449V211.801C155.079 212.901 153.263 213.967 151.414 215.003V200.445H156.866V200.449Z" fill="#E59F26"/>
<path fill-rule="evenodd" clip-rule="evenodd" d="M148.234 200.449V216.747C146.443 217.699 144.627 218.621 142.781 219.518V200.449H148.234Z" fill="#E59F26"/>
<path fill-rule="evenodd" clip-rule="evenodd" d="M139.605 200.449V221.022C137.814 221.852 135.994 222.656 134.153 223.432V200.449H139.605Z" fill="#E59F26"/>
<path fill-rule="evenodd" clip-rule="evenodd" d="M130.973 200.449V224.746C130.808 224.813 130.648 224.876 130.479 224.944C128.806 224.278 127.155 223.592 125.525 222.884V200.449H130.973Z" fill="#E59F26"/>
<path fill-rule="evenodd" clip-rule="evenodd" d="M122.345 200.449V221.481C120.499 220.643 118.683 219.78 116.892 218.887V200.454H122.345V200.449Z" fill="#E59F26"/>
<path fill-rule="evenodd" clip-rule="evenodd" d="M113.712 200.449V217.261C111.867 216.3 110.051 215.302 108.26 214.274V200.445H113.712V200.449Z" fill="#E59F26"/>
<path fill-rule="evenodd" clip-rule="evenodd" d="M105.084 200.449V212.408C103.23 211.288 101.414 210.138 99.6316 208.95V200.445H105.084V200.449Z" fill="#E59F26"/>
<path fill-rule="evenodd" clip-rule="evenodd" d="M96.4516 200.449V206.785C94.5933 205.483 92.7773 204.144 90.9993 202.766V200.449H96.4516Z" fill="#E59F26"/>
<defs>
<linearGradient id="paint0_linear_31_4" x1="127.358" y1="54.0475" x2="132.235" y2="234.011" gradientUnits="userSpaceOnUse">
<stop stop-color="#E59F26"/>
<stop offset="0.4392" stop-color="#FDEB9E"/>
<stop offset="0.6392" stop-color="#E7A631"/>
<stop offset="0.7608" stop-color="#E6A42D"/>
<stop offset="1" stop-color="#FFF0A6"/>
</linearGradient>
<linearGradient id="paint1_linear_31_4" x1="64.6179" y1="209.282" x2="190.894" y2="58.7772" gradientUnits="userSpaceOnUse">
<stop stop-color="#2F2F2F"/>
<stop offset="0.1882" stop-color="#343434"/>
<stop offset="0.349" stop-color="#726F6E"/>
<stop offset="0.4784" stop-color="#303030"/>
<stop offset="0.6902" stop-color="#323231"/>
<stop offset="1" stop-color="#8F8B89"/>
</linearGradient>
<linearGradient id="paint2_linear_31_4" x1="90.3897" y1="204.662" x2="191.924" y2="97.8433" gradientUnits="userSpaceOnUse">
<stop stop-color="#E59F26"/>
<stop offset="0.4392" stop-color="#FDEB9E"/>
<stop offset="0.6392" stop-color="#E7A631"/>
<stop offset="0.7608" stop-color="#E6A42D"/>
<stop offset="1" stop-color="#FFF0A6"/>
</linearGradient>
<linearGradient id="paint3_linear_31_4" x1="153.213" y1="187.862" x2="147.574" y2="194.938" gradientUnits="userSpaceOnUse">
<stop stop-color="#E59F26"/>
<stop offset="0.2196" stop-color="#FDEB9E"/>
<stop offset="0.451" stop-color="#E7A631"/>
<stop offset="0.6118" stop-color="#F8DB84"/>
<stop offset="0.7608" stop-color="#E8AB38"/>
<stop offset="0.8392" stop-color="#E6A42D"/>
<stop offset="1" stop-color="#FFF0A6"/>
</linearGradient>
<linearGradient id="paint4_linear_31_4" x1="153.009" y1="186.995" x2="147.506" y2="195.812" gradientUnits="userSpaceOnUse">
<stop stop-color="#E59F26"/>
<stop offset="0.1608" stop-color="#FDEB9E"/>
<stop offset="0.2706" stop-color="#E7A631"/>
<stop offset="0.4588" stop-color="#F7D880"/>
<stop offset="0.6118" stop-color="#F8DB84"/>
<stop offset="0.7608" stop-color="#E8AB38"/>
<stop offset="0.8392" stop-color="#E6A42D"/>
<stop offset="1" stop-color="#FFF0A6"/>
</linearGradient>
<linearGradient id="paint5_linear_31_4" x1="138.314" y1="187.862" x2="132.675" y2="194.938" gradientUnits="userSpaceOnUse">
<stop stop-color="#E59F26"/>
<stop offset="0.2196" stop-color="#FDEB9E"/>
<stop offset="0.451" stop-color="#E7A631"/>
<stop offset="0.6118" stop-color="#F8DB84"/>
<stop offset="0.7608" stop-color="#E8AB38"/>
<stop offset="0.8392" stop-color="#E6A42D"/>
<stop offset="1" stop-color="#FFF0A6"/>
</linearGradient>
<linearGradient id="paint6_linear_31_4" x1="138.11" y1="186.995" x2="132.607" y2="195.812" gradientUnits="userSpaceOnUse">
<stop stop-color="#E59F26"/>
<stop offset="0.1608" stop-color="#FDEB9E"/>
<stop offset="0.2706" stop-color="#E7A631"/>
<stop offset="0.4588" stop-color="#F7D880"/>
<stop offset="0.6118" stop-color="#F8DB84"/>
<stop offset="0.7608" stop-color="#E8AB38"/>
<stop offset="0.8392" stop-color="#E6A42D"/>
<stop offset="1" stop-color="#FFF0A6"/>
</linearGradient>
<linearGradient id="paint7_linear_31_4" x1="123.416" y1="187.862" x2="117.776" y2="194.938" gradientUnits="userSpaceOnUse">
<stop stop-color="#E59F26"/>
<stop offset="0.2196" stop-color="#FDEB9E"/>
<stop offset="0.451" stop-color="#E7A631"/>
<stop offset="0.6118" stop-color="#F8DB84"/>
<stop offset="0.7608" stop-color="#E8AB38"/>
<stop offset="0.8392" stop-color="#E6A42D"/>
<stop offset="1" stop-color="#FFF0A6"/>
</linearGradient>
<linearGradient id="paint8_linear_31_4" x1="123.212" y1="186.995" x2="117.708" y2="195.812" gradientUnits="userSpaceOnUse">
<stop stop-color="#E59F26"/>
<stop offset="0.1608" stop-color="#FDEB9E"/>
<stop offset="0.2706" stop-color="#E7A631"/>
<stop offset="0.4588" stop-color="#F7D880"/>
<stop offset="0.6118" stop-color="#F8DB84"/>
<stop offset="0.7608" stop-color="#E8AB38"/>
<stop offset="0.8392" stop-color="#E6A42D"/>
<stop offset="1" stop-color="#FFF0A6"/>
</linearGradient>
<linearGradient id="paint9_linear_31_4" x1="108.517" y1="187.862" x2="102.878" y2="194.938" gradientUnits="userSpaceOnUse">
<stop stop-color="#E59F26"/>
<stop offset="0.2196" stop-color="#FDEB9E"/>
<stop offset="0.451" stop-color="#E7A631"/>
<stop offset="0.6118" stop-color="#F8DB84"/>
<stop offset="0.7608" stop-color="#E8AB38"/>
<stop offset="0.8392" stop-color="#E6A42D"/>
<stop offset="1" stop-color="#FFF0A6"/>
</linearGradient>
<linearGradient id="paint10_linear_31_4" x1="108.313" y1="186.995" x2="102.81" y2="195.813" gradientUnits="userSpaceOnUse">
<stop stop-color="#E59F26"/>
<stop offset="0.1608" stop-color="#FDEB9E"/>
<stop offset="0.2706" stop-color="#E7A631"/>
<stop offset="0.4588" stop-color="#F7D880"/>
<stop offset="0.6118" stop-color="#F8DB84"/>
<stop offset="0.7608" stop-color="#E8AB38"/>
<stop offset="0.8392" stop-color="#E6A42D"/>
<stop offset="1" stop-color="#FFF0A6"/>
</linearGradient>
</defs>
</svg>
