<svg width="19" height="19" viewBox="0 0 19 19" fill="none" xmlns="http://www.w3.org/2000/svg">
<path fill-rule="evenodd" clip-rule="evenodd" d="M15.2292 17.8333C15.9198 17.8333 16.5822 17.5589 17.0706 17.0706C17.559 16.5822 17.8333 15.9198 17.8333 15.2291C17.8333 14.5385 17.559 13.8761 17.0706 13.3877C16.5822 12.8993 15.9198 12.625 15.2292 12.625C14.5385 12.625 13.8761 12.8993 13.3878 13.3877C12.8994 13.8761 12.625 14.5385 12.625 15.2291C12.625 15.9198 12.8994 16.5822 13.3878 17.0706C13.8761 17.5589 14.5385 17.8333 15.2292 17.8333ZM15.2292 18.875C16.1961 18.875 17.1234 18.4909 17.8072 17.8071C18.4909 17.1234 18.875 16.1961 18.875 15.2291C18.875 14.2622 18.4909 13.3349 17.8072 12.6512C17.1234 11.9674 16.1961 11.5833 15.2292 11.5833C14.2622 11.5833 13.3349 11.9674 12.6512 12.6512C11.9675 13.3349 11.5833 14.2622 11.5833 15.2291C11.5833 16.1961 11.9675 17.1234 12.6512 17.8071C13.3349 18.4909 14.2622 18.875 15.2292 18.875Z" fill="black"/>
<path fill-rule="evenodd" clip-rule="evenodd" d="M15.2292 13.4062C15.3673 13.4062 15.4998 13.4611 15.5975 13.5588C15.6951 13.6565 15.75 13.7889 15.75 13.9271V15.0135L16.1182 15.3818C16.2131 15.48 16.2656 15.6116 16.2644 15.7481C16.2632 15.8847 16.2085 16.0153 16.1119 16.1119C16.0153 16.2085 15.8847 16.2632 15.7481 16.2644C15.6116 16.2656 15.48 16.2131 15.3818 16.1182L14.7083 15.4448V13.9271C14.7083 13.7889 14.7632 13.6565 14.8609 13.5588C14.9586 13.4611 15.091 13.4062 15.2292 13.4062ZM4.29168 8.97917H3.25001V10.0208H4.29168V8.97917ZM3.25001 7.9375C2.97374 7.9375 2.70879 8.04725 2.51344 8.2426C2.31809 8.43795 2.20834 8.7029 2.20834 8.97917V10.0208C2.20834 10.2971 2.31809 10.5621 2.51344 10.7574C2.70879 10.9528 2.97374 11.0625 3.25001 11.0625H4.29168C4.56794 11.0625 4.8329 10.9528 5.02825 10.7574C5.2236 10.5621 5.33334 10.2971 5.33334 10.0208V8.97917C5.33334 8.7029 5.2236 8.43795 5.02825 8.2426C4.8329 8.04725 4.56794 7.9375 4.29168 7.9375H3.25001ZM8.45834 8.97917H7.41668V10.0208H8.45834V8.97917ZM7.41668 7.9375C7.14041 7.9375 6.87546 8.04725 6.68011 8.2426C6.48476 8.43795 6.37501 8.7029 6.37501 8.97917V10.0208C6.37501 10.2971 6.48476 10.5621 6.68011 10.7574C6.87546 10.9528 7.14041 11.0625 7.41668 11.0625H8.45834C8.73461 11.0625 8.99956 10.9528 9.19491 10.7574C9.39026 10.5621 9.50001 10.2971 9.50001 10.0208V8.97917C9.50001 8.7029 9.39026 8.43795 9.19491 8.2426C8.99956 8.04725 8.73461 7.9375 8.45834 7.9375H7.41668ZM12.625 8.97917H11.5833V10.0208H12.625V8.97917ZM11.5833 7.9375C11.3071 7.9375 11.0421 8.04725 10.8468 8.2426C10.6514 8.43795 10.5417 8.7029 10.5417 8.97917V10.0208C10.5417 10.2971 10.6514 10.5621 10.8468 10.7574C11.0421 10.9528 11.3071 11.0625 11.5833 11.0625H12.625C12.9013 11.0625 13.1662 10.9528 13.3616 10.7574C13.5569 10.5621 13.6667 10.2971 13.6667 10.0208V8.97917C13.6667 8.7029 13.5569 8.43795 13.3616 8.2426C13.1662 8.04725 12.9013 7.9375 12.625 7.9375H11.5833ZM4.29168 13.1458H3.25001V14.1875H4.29168V13.1458ZM3.25001 12.1042C2.97374 12.1042 2.70879 12.2139 2.51344 12.4093C2.31809 12.6046 2.20834 12.8696 2.20834 13.1458V14.1875C2.20834 14.4638 2.31809 14.7287 2.51344 14.9241C2.70879 15.1194 2.97374 15.2292 3.25001 15.2292H4.29168C4.56794 15.2292 4.8329 15.1194 5.02825 14.9241C5.2236 14.7287 5.33334 14.4638 5.33334 14.1875V13.1458C5.33334 12.8696 5.2236 12.6046 5.02825 12.4093C4.8329 12.2139 4.56794 12.1042 4.29168 12.1042H3.25001ZM8.45834 13.1458H7.41668V14.1875H8.45834V13.1458ZM7.41668 12.1042C7.14041 12.1042 6.87546 12.2139 6.68011 12.4093C6.48476 12.6046 6.37501 12.8696 6.37501 13.1458V14.1875C6.37501 14.4638 6.48476 14.7287 6.68011 14.9241C6.87546 15.1194 7.14041 15.2292 7.41668 15.2292H8.45834C8.73461 15.2292 8.99956 15.1194 9.19491 14.9241C9.39026 14.7287 9.50001 14.4638 9.50001 14.1875V13.1458C9.50001 12.8696 9.39026 12.6046 9.19491 12.4093C8.99956 12.2139 8.73461 12.1042 8.45834 12.1042H7.41668Z" fill="black"/>
<path fill-rule="evenodd" clip-rule="evenodd" d="M1.16667 3.25C1.16667 3.11187 1.22154 2.97939 1.31922 2.88172C1.41689 2.78404 1.54937 2.72917 1.6875 2.72917H4.29167V1.6875H1.6875C1.2731 1.6875 0.875671 1.85212 0.582646 2.14515C0.28962 2.43817 0.125 2.8356 0.125 3.25V15.75C0.125 16.1644 0.28962 16.5618 0.582646 16.8549C0.875671 17.1479 1.2731 17.3125 1.6875 17.3125H12.237C12.0149 16.9944 11.8452 16.6427 11.7344 16.2708H1.6875C1.54937 16.2708 1.41689 16.216 1.31922 16.1183C1.22154 16.0206 1.16667 15.8881 1.16667 15.75V3.25ZM14.7083 11.6198C15.0538 11.5704 15.4045 11.5704 15.75 11.6198V3.25C15.75 2.8356 15.5854 2.43817 15.2924 2.14515C14.9993 1.85212 14.6019 1.6875 14.1875 1.6875H12.625V2.72917H14.1875C14.3256 2.72917 14.4581 2.78404 14.5558 2.88172C14.6535 2.97939 14.7083 3.11187 14.7083 3.25V11.6198ZM5.33333 2.72917H10.8349V1.6875H5.33333V2.72917Z" fill="black"/>
<path fill-rule="evenodd" clip-rule="evenodd" d="M11.5833 1.6875H5.33334V3.25C5.33334 3.38813 5.27847 3.52061 5.18079 3.61828C5.08312 3.71596 4.95064 3.77083 4.81251 3.77083C4.67438 3.77083 4.5419 3.71596 4.44423 3.61828C4.34655 3.52061 4.29168 3.38813 4.29168 3.25V1.6875H1.68751C1.41124 1.6875 1.14629 1.79725 0.950941 1.9926C0.75559 2.18795 0.645844 2.4529 0.645844 2.72917V5.33333C0.645844 5.6096 0.75559 5.87455 0.950941 6.0699C1.14629 6.26525 1.41124 6.375 1.68751 6.375H14.1875C14.4638 6.375 14.7287 6.26525 14.9241 6.0699C15.1194 5.87455 15.2292 5.6096 15.2292 5.33333V2.72917C15.2292 2.4529 15.1194 2.18795 14.9241 1.9926C14.7287 1.79725 14.4638 1.6875 14.1875 1.6875H12.625V3.25C12.625 3.38813 12.5701 3.52061 12.4725 3.61828C12.3748 3.71596 12.2423 3.77083 12.1042 3.77083C11.966 3.77083 11.8336 3.71596 11.7359 3.61828C11.6382 3.52061 11.5833 3.38813 11.5833 3.25V1.6875Z" fill="black"/>
<path fill-rule="evenodd" clip-rule="evenodd" d="M15.75 6.37498H1.16666V5.33331H15.75V6.37498Z" fill="black"/>
<path d="M3.25 0.645833C3.25 0.5077 3.30487 0.375224 3.40255 0.277549C3.50022 0.179873 3.6327 0.125 3.77083 0.125C3.90897 0.125 4.04144 0.179873 4.13912 0.277549C4.23679 0.375224 4.29167 0.5077 4.29167 0.645833V2.72917C4.29167 2.8673 4.23679 2.99978 4.13912 3.09745C4.04144 3.19513 3.90897 3.25 3.77083 3.25C3.6327 3.25 3.50022 3.19513 3.40255 3.09745C3.30487 2.99978 3.25 2.8673 3.25 2.72917V0.645833ZM10.5417 0.645833C10.5417 0.5077 10.5965 0.375224 10.6942 0.277549C10.7919 0.179873 10.9244 0.125 11.0625 0.125C11.2006 0.125 11.3331 0.179873 11.4308 0.277549C11.5285 0.375224 11.5833 0.5077 11.5833 0.645833V2.72917C11.5833 2.8673 11.5285 2.99978 11.4308 3.09745C11.3331 3.19513 11.2006 3.25 11.0625 3.25C10.9244 3.25 10.7919 3.19513 10.6942 3.09745C10.5965 2.99978 10.5417 2.8673 10.5417 2.72917V0.645833Z" fill="black"/>
</svg>
