<svg width="25" height="25" viewBox="0 0 25 25" fill="none" xmlns="http://www.w3.org/2000/svg">
<g clip-path="url(#clip0_114_260)">
<path d="M7.42188 18.7969H17.5781V24.2656H7.42188V18.7969ZM12.5 15.6719V18.7969V15.6719ZM7.42188 4.73438C5.07812 4.73438 2.73438 5.51562 2.73438 8.25C2.73438 10.9844 5.07812 11.7656 7.42188 11.7656V4.73438ZM17.5781 4.73438C19.9219 4.73438 22.2656 5.51562 22.2656 8.25C22.2656 10.9844 19.9219 11.7656 17.5781 11.7656V4.73438ZM7.42188 4.73438H17.5781V10.2031C17.5781 12.5469 16.0156 14.8906 12.5 14.8906C8.98438 14.8906 7.42188 12.5469 7.42188 10.2031V4.73438Z" stroke="black" stroke-width="1.5" stroke-linecap="round" stroke-linejoin="round"/>
</g>
<defs>
<clipPath id="clip0_114_260">
<rect width="25" height="25" fill="white"/>
</clipPath>
</defs>
</svg>
