<svg width="25" height="25" viewBox="0 0 25 25" fill="none" xmlns="http://www.w3.org/2000/svg">
<g clip-path="url(#clip0_117_199)">
<path d="M24.0617 8.54961C22.6016 5.63984 21.6168 4.01875 21.1344 3.73164C20.7527 3.50586 20.093 3.44258 18.8621 3.34141C17.9406 3.26602 16.7945 3.17187 16.2809 2.9707L15.7965 2.78125L15.4613 3.18047C15.4359 3.20977 14.2227 4.59727 12.5004 4.59727C10.7672 4.59727 9.54961 3.19453 9.5375 3.18008L9.20039 2.78516L8.71875 2.97109C8.20508 3.17266 7.05937 3.26641 6.13828 3.34141C4.90703 3.44258 4.24687 3.50586 3.86641 3.73125C3.38242 4.01875 2.39766 5.63984 0.938281 8.54961L0.78125 8.86211L0.91875 9.18438C2.20781 12.2129 5.24766 12.8789 5.37656 12.9059L5.77969 12.9898L5.36797 23.9438L5.35117 24.3937L5.73516 24.6184C9.37891 26.7516 15.6199 26.7516 19.2641 24.6184L19.648 24.3937L19.6309 23.9438L19.2191 12.9898L19.6223 12.9059C19.7512 12.8789 22.791 12.2129 24.0805 9.18438L24.2188 8.86211L24.0617 8.54961ZM22.0953 9.69141C21.2598 10.7625 20.232 11.3551 19.0348 11.4582L18.3898 10.4355L18.8988 23.9719C15.3602 26.0434 9.63984 26.0438 6.10078 23.9719L6.60938 10.4355L5.98672 11.4336C4.79023 11.3305 3.76172 10.7371 2.92734 9.66719C2.55115 9.17852 2.24275 8.64123 2.01055 8.06992L1.98594 8.1168C2.62148 6.89062 3.84063 4.60977 4.23555 4.375C4.71641 4.08984 7.16602 4.10625 8.51836 3.79844C8.88094 4.16751 9.27909 4.49986 9.70703 4.79063C10.1032 5.0589 10.5294 5.27981 10.977 5.44883C11.518 5.64961 12.0613 5.75117 12.5957 5.75117H12.6113C13.2578 5.74805 13.8926 5.59687 14.4988 5.3C15.168 4.97266 15.809 4.46172 16.409 3.78359C17.7457 4.10742 20.2746 4.08477 20.7641 4.375C21.1574 4.60938 22.3703 6.87578 23.0078 8.10508C22.7766 8.67261 22.4697 9.20623 22.0953 9.69141Z" fill="black"/>
</g>
<defs>
<clipPath id="clip0_117_199">
<rect width="25" height="25" fill="white"/>
</clipPath>
</defs>
</svg>
