<svg width="24" height="24" viewBox="0 0 24 24" fill="none" xmlns="http://www.w3.org/2000/svg">
<path d="M18.0001 14.7225C17.1087 14.7225 16.307 15.0975 15.7377 15.696L9.08637 12.4395C9.10924 12.2865 9.12499 12.1316 9.12499 11.9723C9.12499 11.817 9.10999 11.6655 9.08824 11.5166L15.7299 8.29576C16.2995 8.89914 17.105 9.27789 18.0001 9.27789C19.7259 9.27789 21.125 7.87876 21.125 6.15301C21.125 4.42689 19.7259 3.02814 18.0001 3.02814C16.2744 3.02814 14.8752 4.42689 14.8752 6.15301C14.8752 6.30826 14.8902 6.45939 14.912 6.60864L8.27037 9.82951C7.70074 9.22614 6.89562 8.84739 6.00012 8.84739C4.27399 8.84739 2.87524 10.2465 2.87524 11.9723C2.87524 13.6984 4.27399 15.0971 6.00012 15.0971C6.89149 15.0971 7.69324 14.7221 8.26249 14.1236L14.9139 17.3801C14.891 17.5328 14.8752 17.688 14.8752 17.8474C14.8752 19.5735 16.2744 20.9723 18.0001 20.9723C19.7259 20.9723 21.125 19.5735 21.125 17.8474C21.125 16.1213 19.7259 14.7225 18.0001 14.7225Z" fill="#E59F26"/>
</svg>
