<svg width="25" height="24" viewBox="0 0 25 24" fill="none" xmlns="http://www.w3.org/2000/svg">
<circle cx="12.9429" cy="12" r="10.5" fill="#E59F26"/>
<path fill-rule="evenodd" clip-rule="evenodd" d="M16.712 6.13913C15.9879 5.2266 14.7933 4.5 12.9517 4.5C11.3747 4.51553 8.22071 5.38834 8.22071 8.75533C8.22071 9.24706 8.25963 9.90561 8.29364 10.3906C8.25356 10.3789 8.20428 10.3571 8.12618 10.3197L8.11533 10.3145C7.97724 10.2482 7.76725 10.1474 7.47522 10.1474C7.18021 10.1474 6.89496 10.2629 6.68319 10.4343C6.47269 10.6046 6.29287 10.8664 6.29287 11.1829C6.29287 11.5788 6.51568 11.8416 6.7762 12.0101C7.00761 12.1598 7.29941 12.2554 7.53039 12.3311L7.55323 12.3386C7.80049 12.4197 7.98169 12.4815 8.10664 12.5594C8.20389 12.62 8.21865 12.6584 8.22048 12.6948C8.21921 12.7 8.21624 12.7112 8.20977 12.7293C8.19643 12.7668 8.17425 12.8174 8.14183 12.8807C8.07717 13.007 7.98288 13.1623 7.8707 13.328C7.64441 13.6621 7.36825 14.0048 7.16196 14.2032C6.95848 14.3989 6.62459 14.6422 6.27549 14.8358C6.10237 14.9318 5.93307 15.0114 5.78162 15.066C5.62529 15.1225 5.51072 15.144 5.43993 15.144C5.38389 15.144 5.33539 15.1555 5.31422 15.1608C5.28447 15.1682 5.25368 15.178 5.22322 15.1895C5.1628 15.2122 5.09079 15.2463 5.01947 15.2942C4.8832 15.386 4.69287 15.5709 4.69287 15.8626C4.69287 16.0149 4.72862 16.1438 4.79041 16.2556C4.8445 16.3535 4.91403 16.4278 4.95404 16.4706L4.95998 16.4769L4.97106 16.4888C5.19113 16.7256 5.55543 16.8903 5.90908 17.0034C6.21296 17.1005 6.55272 17.1729 6.88378 17.2163C6.88846 17.2377 6.89335 17.2607 6.8987 17.2859L6.90042 17.294C6.92126 17.3923 6.94887 17.5225 6.98953 17.6425C7.02789 17.7558 7.09736 17.9233 7.2396 18.0426C7.42075 18.1945 7.65768 18.2099 7.81227 18.2092C7.97822 18.2086 8.17198 18.1852 8.35583 18.163L8.37148 18.1612C8.63018 18.13 8.9008 18.0978 9.18111 18.0978C9.69263 18.0978 10.0205 18.3115 10.5349 18.6628L10.5384 18.6652C10.7166 18.7869 10.9161 18.9231 11.1429 19.0571C11.902 19.5057 12.5188 19.5018 12.8684 19.4996C12.8915 19.4995 12.9134 19.4994 12.934 19.4994C12.9547 19.4994 12.9767 19.4995 13 19.4997C13.3501 19.5019 13.9833 19.506 14.7429 19.0571C14.9696 18.9231 15.1691 18.7869 15.3473 18.6652L15.3508 18.6628C15.8653 18.3115 16.1931 18.0978 16.7046 18.0978C16.9849 18.0978 17.2556 18.13 17.5143 18.1612L17.5299 18.163C17.7138 18.1852 17.9075 18.2086 18.0735 18.2092C18.2281 18.2099 18.465 18.1945 18.6461 18.0426C18.7884 17.9233 18.8579 17.7558 18.8962 17.6425C18.9369 17.5225 18.9645 17.3923 18.9853 17.294L18.987 17.2859C18.9924 17.2607 18.9973 17.2377 19.002 17.2163C19.333 17.1729 19.6728 17.1005 19.9767 17.0034C20.3303 16.8903 20.6946 16.7255 20.9147 16.4888L20.9258 16.4769L20.9317 16.4706C20.9717 16.4278 21.0412 16.3535 21.0953 16.2556C21.1571 16.1438 21.1929 16.0149 21.1929 15.8626C21.1929 15.5709 21.0025 15.386 20.8663 15.2942C20.795 15.2463 20.7229 15.2122 20.6625 15.1895C20.6321 15.178 20.6013 15.1682 20.5715 15.1608C20.5504 15.1555 20.5019 15.144 20.4458 15.144C20.375 15.144 20.2605 15.1225 20.1041 15.066C19.9527 15.0114 19.7834 14.9318 19.6103 14.8358C19.2612 14.6422 18.9273 14.3989 18.7238 14.2032C18.5175 14.0048 18.2413 13.6621 18.015 13.328C17.9029 13.1623 17.8086 13.0071 17.7439 12.8807C17.7115 12.8174 17.6893 12.7668 17.676 12.7293C17.6695 12.7112 17.6665 12.7 17.6653 12.6948C17.6671 12.6583 17.6819 12.62 17.7791 12.5594C17.9041 12.4815 18.0853 12.4197 18.3325 12.3386L18.3553 12.3311C18.5863 12.2554 18.8781 12.1598 19.1095 12.0101C19.3701 11.8416 19.5929 11.5788 19.5929 11.1829C19.5929 10.8664 19.4131 10.6046 19.2026 10.4343C18.9908 10.2629 18.7055 10.1474 18.4105 10.1474C18.1185 10.1474 17.9085 10.2482 17.7704 10.3145L17.7596 10.3197C17.6815 10.3571 17.6322 10.3789 17.5921 10.3906C17.6261 9.90561 17.665 9.24706 17.665 8.75533C17.665 8.08777 17.4223 7.03428 16.712 6.13913ZM9.78029 6.57955C9.17949 7.33162 8.97365 8.22462 8.97365 8.75533C8.97365 9.2474 9.01533 9.93099 9.05051 10.4212C9.06219 10.584 9.02881 10.7737 8.88664 10.9244C8.74274 11.0768 8.54696 11.1263 8.37208 11.1263C8.11954 11.1263 7.92747 11.0339 7.80461 10.9748L7.79034 10.968C7.65326 10.9023 7.58118 10.8717 7.47522 10.8717C7.37883 10.8717 7.26115 10.9131 7.16783 10.9886C7.07323 11.0651 7.04581 11.14 7.04581 11.1829C7.04581 11.2702 7.07801 11.3325 7.19633 11.4091C7.33607 11.4995 7.53519 11.5674 7.79622 11.653L7.81894 11.6605C8.03571 11.7315 8.3042 11.8195 8.51608 11.9515C8.75391 12.0998 8.97365 12.338 8.97365 12.7051C8.97365 12.8013 8.94705 12.8939 8.92207 12.9641C8.89497 13.0402 8.85834 13.1206 8.8173 13.2007C8.73505 13.3614 8.62382 13.5428 8.50156 13.7234C8.25899 14.0815 7.95065 14.4688 7.69437 14.7154C7.43528 14.9646 7.04565 15.2447 6.65156 15.4633C6.45309 15.5734 6.24588 15.6721 6.04608 15.7442C5.86723 15.8087 5.67447 15.8593 5.48955 15.8672C5.48494 15.8691 5.47985 15.8715 5.47452 15.8741C5.46599 15.8784 5.45802 15.8831 5.45106 15.8878L5.4475 15.8902C5.4482 15.8952 5.449 15.8989 5.44966 15.9015C5.45114 15.9073 5.4529 15.9114 5.45526 15.9157C5.46251 15.9288 5.47395 15.9434 5.5202 15.993L5.53233 16.006C5.61565 16.0957 5.82099 16.212 6.14648 16.316C6.45648 16.4151 6.82305 16.4867 7.16938 16.5195C7.34266 16.5359 7.44253 16.6442 7.4848 16.7025C7.52831 16.7626 7.5532 16.826 7.56774 16.8681C7.59587 16.9495 7.61712 17.0499 7.63388 17.129L7.63643 17.141C7.65931 17.2489 7.67933 17.3411 7.70543 17.4182C7.71466 17.4454 7.72317 17.4662 7.7305 17.4814C7.74702 17.4833 7.77236 17.4851 7.80907 17.4849C7.96831 17.4843 8.12775 17.4606 8.28553 17.4415C8.53797 17.4111 8.85036 17.3735 9.18111 17.3735C9.9482 17.3735 10.4544 17.7193 10.9433 18.0534L10.9708 18.0722C11.1517 18.1958 11.3331 18.3195 11.537 18.44C12.1116 18.7795 12.5489 18.7771 12.8684 18.7753C12.8908 18.7752 12.9127 18.7751 12.934 18.7751C12.9552 18.7751 12.9769 18.7752 12.9993 18.7753C13.3223 18.777 13.7742 18.7795 14.3488 18.44C14.5527 18.3195 14.734 18.1958 14.915 18.0722L14.9424 18.0534C15.4314 17.7193 15.9375 17.3735 16.7046 17.3735C17.0354 17.3735 17.3478 17.4111 17.6002 17.4415L17.6078 17.4425C17.812 17.4671 17.9613 17.4845 18.0767 17.4849C18.1134 17.4851 18.1387 17.4833 18.1552 17.4814C18.1626 17.4662 18.1711 17.4454 18.1803 17.4182C18.2064 17.3411 18.2264 17.2489 18.2493 17.141L18.2519 17.129C18.2686 17.0499 18.2899 16.9495 18.318 16.8681C18.3325 16.826 18.3574 16.7626 18.4009 16.7025C18.4432 16.6442 18.5431 16.5359 18.7164 16.5195C19.0627 16.4867 19.4293 16.4151 19.7393 16.316C20.0647 16.212 20.2701 16.0957 20.3534 16.006L20.3655 15.993C20.4118 15.9435 20.4232 15.9288 20.4305 15.9157C20.4328 15.9114 20.4346 15.9073 20.4361 15.9015C20.4367 15.8989 20.4375 15.8952 20.4382 15.8902L20.4347 15.8878C20.4277 15.8831 20.4197 15.8784 20.4112 15.8741C20.4059 15.8715 20.4008 15.8691 20.3962 15.8672C20.2113 15.8593 20.0185 15.8087 19.8397 15.7442C19.6399 15.6721 19.4327 15.5734 19.2342 15.4633C18.8401 15.2447 18.4505 14.9646 18.1914 14.7154C17.9351 14.4688 17.6267 14.0815 17.3842 13.7234C17.2619 13.5428 17.1507 13.3614 17.0684 13.2007C17.0274 13.1206 16.9908 13.0402 16.9637 12.9641C16.9387 12.8939 16.9121 12.8013 16.9121 12.7051C16.9121 12.338 17.1318 12.0998 17.3697 11.9515C17.5815 11.8195 17.85 11.7315 18.0668 11.6605L18.0895 11.653C18.3506 11.5674 18.5497 11.4995 18.6894 11.4091C18.8077 11.3325 18.8399 11.2702 18.8399 11.1829C18.8399 11.14 18.8125 11.0651 18.7179 10.9886C18.6246 10.9131 18.5069 10.8717 18.4105 10.8717C18.3046 10.8717 18.2325 10.9023 18.0954 10.968L18.0811 10.9748C17.9583 11.0339 17.7662 11.1263 17.5137 11.1263C17.3388 11.1263 17.143 11.0768 16.9991 10.9244C16.8569 10.7737 16.8236 10.584 16.8352 10.4212C16.8704 9.93099 16.9121 9.2474 16.9121 8.75533C16.9121 8.22324 16.7099 7.33014 16.1135 6.57862C15.531 5.84448 14.5571 5.22431 12.9517 5.22431C11.3461 5.22431 10.3674 5.84466 9.78029 6.57955Z" fill="#E59F26"/>
<path fill-rule="evenodd" clip-rule="evenodd" d="M9.78054 6.57961C9.17974 7.33167 8.9739 8.22467 8.9739 8.75538C8.9739 9.24746 9.01558 9.93104 9.05076 10.4212C9.06244 10.584 9.02906 10.7738 8.88689 10.9244C8.74299 11.0769 8.54721 11.1264 8.37233 11.1264C8.11979 11.1264 7.92772 11.034 7.80486 10.9749L7.79059 10.968C7.65351 10.9023 7.58143 10.8717 7.47547 10.8717C7.37908 10.8717 7.2614 10.9132 7.16808 10.9887C7.07348 11.0652 7.04606 11.1401 7.04606 11.183C7.04606 11.2702 7.07826 11.3326 7.19658 11.4091C7.33632 11.4995 7.53544 11.5675 7.79647 11.6531L7.81919 11.6605C8.03596 11.7315 8.30445 11.8195 8.51633 11.9516C8.75416 12.0998 8.9739 12.3381 8.9739 12.7051C8.9739 12.8014 8.9473 12.894 8.92232 12.9641C8.89522 13.0402 8.85859 13.1206 8.81755 13.2008C8.7353 13.3615 8.62407 13.5429 8.50182 13.7234C8.25924 14.0816 7.9509 14.4689 7.69462 14.7154C7.43553 14.9647 7.0459 15.2448 6.65181 15.4634C6.45334 15.5734 6.24613 15.6722 6.04633 15.7443C5.86748 15.8088 5.67472 15.8594 5.4898 15.8673C5.48519 15.8692 5.4801 15.8715 5.47477 15.8742C5.46624 15.8785 5.45827 15.8831 5.45131 15.8878L5.44775 15.8903C5.44845 15.8953 5.44925 15.8989 5.44991 15.9015C5.45139 15.9073 5.45315 15.9115 5.45551 15.9157C5.46276 15.9289 5.4742 15.9435 5.52045 15.993L5.53258 16.0061C5.6159 16.0957 5.82124 16.212 6.14674 16.3161C6.45673 16.4151 6.8233 16.4867 7.16963 16.5196C7.34291 16.536 7.44278 16.6443 7.48505 16.7026C7.52856 16.7627 7.55345 16.8261 7.56799 16.8682C7.59612 16.9496 7.61737 17.0499 7.63413 17.1291L7.63668 17.1411C7.65956 17.2489 7.67958 17.3411 7.70568 17.4182C7.71491 17.4455 7.72343 17.4662 7.73075 17.4815C7.74728 17.4833 7.77261 17.4851 7.80932 17.485C7.96857 17.4843 8.128 17.4606 8.28578 17.4416C8.53822 17.4112 8.85061 17.3735 9.18136 17.3735C9.94845 17.3735 10.4546 17.7194 10.9436 18.0535L10.971 18.0722C11.152 18.1958 11.3333 18.3195 11.5372 18.44C12.1119 18.7796 12.5491 18.7771 12.8686 18.7754C12.8911 18.7752 12.913 18.7751 12.9343 18.7751C12.9554 18.7751 12.9772 18.7752 12.9996 18.7753C13.3226 18.7771 13.7745 18.7795 14.349 18.44C14.5529 18.3195 14.7343 18.1958 14.9152 18.0722L14.9427 18.0535C15.4316 17.7194 15.9378 17.3735 16.7049 17.3735C17.0356 17.3735 17.348 17.4112 17.6005 17.4416L17.6081 17.4425C17.8122 17.4671 17.9616 17.4845 18.0769 17.485C18.1136 17.4851 18.139 17.4833 18.1555 17.4815C18.1628 17.4662 18.1713 17.4455 18.1806 17.4182C18.2067 17.3411 18.2267 17.2489 18.2496 17.1411L18.2521 17.129C18.2689 17.0499 18.2901 16.9496 18.3183 16.8682C18.3328 16.8261 18.3577 16.7627 18.4012 16.7026C18.4435 16.6443 18.5433 16.536 18.7166 16.5196C19.0629 16.4867 19.4295 16.4151 19.7395 16.3161C20.065 16.212 20.2703 16.0957 20.3537 16.0061L20.3658 15.9931C20.412 15.9435 20.4235 15.9289 20.4307 15.9157C20.4331 15.9115 20.4349 15.9073 20.4363 15.9015C20.437 15.8989 20.4378 15.8953 20.4385 15.8903L20.4349 15.8878C20.428 15.8831 20.42 15.8785 20.4115 15.8742C20.4061 15.8715 20.4011 15.8692 20.3964 15.8673C20.2115 15.8594 20.0188 15.8088 19.8399 15.7443C19.6401 15.6722 19.4329 15.5734 19.2344 15.4634C18.8403 15.2448 18.4507 14.9647 18.1916 14.7154C17.9353 14.4689 17.627 14.0816 17.3844 13.7234C17.2622 13.5429 17.1509 13.3615 17.0687 13.2008C17.0276 13.1206 16.991 13.0402 16.9639 12.9641C16.9389 12.894 16.9123 12.8014 16.9123 12.7051C16.9123 12.3381 17.1321 12.0998 17.3699 11.9516C17.5818 11.8195 17.8503 11.7315 18.0671 11.6605L18.0898 11.6531C18.3508 11.5675 18.5499 11.4995 18.6897 11.4091C18.808 11.3326 18.8402 11.2702 18.8402 11.183C18.8402 11.1401 18.8128 11.0652 18.7182 10.9887C18.6248 10.9132 18.5072 10.8717 18.4108 10.8717C18.3048 10.8717 18.2327 10.9023 18.0957 10.968L18.0814 10.9749C17.9585 11.034 17.7664 11.1264 17.5139 11.1264C17.339 11.1264 17.1433 11.0769 16.9994 10.9244C16.8572 10.7738 16.8238 10.584 16.8355 10.4212C16.8707 9.93104 16.9123 9.24746 16.9123 8.75538C16.9123 8.22329 16.7101 7.3302 16.1138 6.57867C15.5312 5.84453 14.5574 5.22437 12.9519 5.22437C11.3463 5.22437 10.3676 5.84472 9.78054 6.57961Z" fill="white"/>
</svg>
