<svg width="25" height="25" viewBox="0 0 25 25" fill="none" xmlns="http://www.w3.org/2000/svg">
<g clip-path="url(#clip0_117_206)">
<path d="M5 5H7L10 7L7 9V10.33C8.47 10.12 10.18 10 12 10C13.82 10 15.53 10.12 17 10.33V5H19L22 7L19 9V10.71C20.85 11.17 22 11.8 22 12.5C22 13.88 17.5 15 12 15C6.5 15 2 13.88 2 12.5C2 11.8 3.15 11.17 5 10.71V5ZM12 11.5C8.69 11.5 7 11.67 7 12.5C7 13.33 8.69 13.5 12 13.5C15.31 13.5 17 13.33 17 12.5C17 11.67 15.31 11.5 12 11.5ZM12 16.75C15.81 16.75 19.2 16.08 21.4 15.05L20 23H15V21C15 20.4696 14.7893 19.9609 14.4142 19.5858C14.0391 19.2107 13.5304 19 13 19H11C10.4696 19 9.96086 19.2107 9.58579 19.5858C9.21071 19.9609 9 20.4696 9 21V23H4L2.6 15.05C4.8 16.08 8.19 16.75 12 16.75Z" fill="black"/>
</g>
<defs>
<clipPath id="clip0_117_206">
<rect width="25" height="25" fill="white"/>
</clipPath>
</defs>
</svg>
