<svg width="29" height="28" viewBox="0 0 29 28" fill="none" xmlns="http://www.w3.org/2000/svg">
<path d="M25.4429 14C25.4429 19.799 20.7419 24.5 14.9429 24.5C12.731 24.5 10.6789 23.8161 8.98645 22.6482L5.39742 23.5455L6.33791 20.0186C5.14368 18.3143 4.44287 16.239 4.44287 14C4.44287 8.20101 9.14388 3.5 14.9429 3.5C20.7419 3.5 25.4429 8.20101 25.4429 14Z" fill="#E59F26"/>
<path d="M11.8804 8.31246C11.5891 7.72746 11.1423 7.77925 10.691 7.77925C9.88429 7.77925 8.62646 8.74549 8.62646 10.5438C8.62646 12.0176 9.27589 13.6308 11.4642 16.0442C13.5762 18.3732 16.3511 19.578 18.6548 19.537C20.9585 19.496 21.4325 17.5136 21.4325 16.8441C21.4325 16.5474 21.2483 16.3993 21.1215 16.3591C20.3364 15.9823 18.8885 15.2803 18.5591 15.1484C18.2296 15.0165 18.0576 15.1949 17.9507 15.292C17.6519 15.5767 17.0597 16.4157 16.8569 16.6045C16.6542 16.7932 16.3519 16.6977 16.2261 16.6263C15.7631 16.4406 14.5079 15.8822 13.5074 14.9124C12.27 13.7129 12.1974 13.3002 11.9643 12.9328C11.7778 12.639 11.9146 12.4586 11.9829 12.3798C12.2495 12.0722 12.6177 11.5973 12.7827 11.3613C12.9478 11.1253 12.8168 10.767 12.7381 10.5438C12.3999 9.58395 12.1134 8.78047 11.8804 8.31246Z" fill="white"/>
</svg>
